<svg width="336" height="335" viewBox="0 0 336 335" fill="none" xmlns="http://www.w3.org/2000/svg">
<path d="M236.749 37.9086C220.474 38.5786 204.515 40.8834 192.562 42.009C164.322 44.689 136.115 47.704 108.102 51.7776C89.9182 54.4241 71.52 56.6217 53.9258 61.64C43.6011 64.5947 30.8309 69.1239 27.1794 79.73C22.9651 91.9441 29.6651 107.743 32.9347 119.689C39.2528 142.824 47.6747 165.523 56.8403 187.834C69.2487 217.984 82.3003 252.436 104.048 278.157C133.126 312.562 213.352 318.518 245.928 271.698C278.503 224.879 315.44 102.858 307.889 71.8173C300.466 41.3055 268.024 36.6088 236.749 37.9086Z" fill="#A73E5C"/>
<path opacity="0.7" d="M236.749 37.9086C220.474 38.5786 204.515 40.8834 192.562 42.009C164.322 44.689 136.115 47.704 108.102 51.7776C89.9182 54.4241 71.52 56.6217 53.9258 61.64C43.6011 64.5947 30.8309 69.1239 27.1794 79.73C22.9651 91.9441 29.6651 107.743 32.9347 119.689C39.2528 142.824 47.6747 165.523 56.8403 187.834C69.2487 217.984 82.3003 252.436 104.048 278.157C133.126 312.562 213.352 318.518 245.928 271.698C278.503 224.879 315.44 102.858 307.889 71.8173C300.466 41.3055 268.024 36.6088 236.749 37.9086Z" fill="white"/>
<path d="M170.673 24.3277V303.068" stroke="#263238" stroke-linecap="round" stroke-linejoin="round"/>
<g opacity="0.3">
<path d="M264.071 209.194V201.864C265.946 200.222 267.736 198.485 269.431 196.658C270.962 195.019 272.246 193.166 273.244 191.158C274.198 189.187 274.685 187.022 274.664 184.833C274.715 183.175 274.195 181.55 273.19 180.23C272.169 179.149 270.774 178.499 269.29 178.412C267.806 178.324 266.344 178.807 265.204 179.761C264.745 180.215 264.385 180.759 264.147 181.358C263.908 181.958 263.796 182.6 263.817 183.245C263.812 183.732 263.85 184.218 263.931 184.699C264.011 185.148 264.112 185.65 264.225 186.206L258.316 187.325C258.112 186.717 257.953 186.094 257.84 185.463C257.725 184.848 257.667 184.225 257.666 183.6C257.612 182.181 257.846 180.765 258.354 179.439C258.862 178.112 259.633 176.902 260.621 175.882C262.591 173.89 265.369 172.896 268.956 172.9C272.703 172.9 275.622 173.954 277.713 176.063C279.803 178.171 280.848 181.157 280.848 185.02C280.884 187.485 280.379 189.928 279.367 192.176C278.352 194.35 276.995 196.348 275.347 198.092C273.558 199.987 271.661 201.776 269.666 203.452V209.187L264.071 209.194ZM263.81 221.2V214.695H270.135V221.2H263.81Z" stroke="black" stroke-miterlimit="10"/>
</g>
<g opacity="0.3">
<path d="M133.93 72.0049V66.6449C135.301 65.4492 136.61 64.1834 137.85 62.8527C138.971 61.6567 139.91 60.3022 140.637 58.8327C141.333 57.3943 141.686 55.8142 141.669 54.2164C141.712 53.0123 141.341 51.8298 140.617 50.8664C139.874 50.0737 138.855 49.5963 137.771 49.5327C136.686 49.4691 135.619 49.8242 134.788 50.5247C134.452 50.8553 134.188 51.2526 134.014 51.691C133.839 52.1294 133.759 52.5993 133.776 53.0707C133.774 53.4232 133.803 53.7753 133.863 54.1226C133.917 54.4576 133.991 54.7926 134.078 55.2281L129.763 56.0455C129.615 55.6078 129.498 55.16 129.415 54.7055C129.332 54.2635 129.29 53.8151 129.287 53.3655C129.247 52.3302 129.418 51.2975 129.789 50.3301C130.159 49.3627 130.723 48.4807 131.445 47.7375C132.883 46.2858 134.911 45.56 137.528 45.56C140.262 45.56 142.39 46.3283 143.913 47.8648C145.437 49.4013 146.2 51.5811 146.205 54.404C146.231 56.2024 145.861 57.9845 145.119 59.6233C144.381 61.2091 143.392 62.666 142.192 63.9381C140.885 65.3248 139.5 66.6357 138.044 67.8643V72.0518L133.93 72.0049ZM133.709 80.7618V76.0182H138.326V80.7618H133.709Z" stroke="black" stroke-miterlimit="10"/>
</g>
<g opacity="0.3">
<path d="M49.678 226.594V221.234C51.0422 220.036 52.3437 218.768 53.5774 217.435C54.6986 216.239 55.6377 214.885 56.3646 213.415C57.0604 211.977 57.4136 210.397 57.3964 208.799C57.4393 207.595 57.068 206.412 56.3445 205.449C55.6016 204.656 54.5827 204.179 53.4981 204.115C52.4136 204.051 51.3459 204.407 50.5155 205.107C50.1795 205.437 49.916 205.833 49.7418 206.27C49.5676 206.707 49.4865 207.176 49.5038 207.646C49.5009 208.001 49.53 208.355 49.5909 208.705C49.6445 209.04 49.7182 209.375 49.8053 209.81L45.4905 210.628C45.3423 210.19 45.2259 209.742 45.1421 209.288C45.0596 208.846 45.017 208.397 45.0148 207.948C44.9746 206.913 45.1451 205.88 45.516 204.912C45.8868 203.945 46.4503 203.063 47.1722 202.32C48.6149 200.864 50.6428 200.138 53.2558 200.142C55.9894 200.142 58.1177 200.911 59.6409 202.447C61.164 203.984 61.9278 206.163 61.9323 208.986C61.9588 210.785 61.5882 212.567 60.8469 214.206C60.1068 215.791 59.1183 217.247 57.919 218.52C56.6123 219.905 55.2276 221.213 53.7717 222.44V226.627L49.678 226.594ZM49.4569 235.351V230.601H54.1V235.351H49.4569Z" stroke="black" stroke-miterlimit="10"/>
</g>
<g opacity="0.3">
<path d="M211.195 86.2156V82.7115C212.09 81.927 212.944 81.0973 213.754 80.2258C214.487 79.4417 215.101 78.5546 215.577 77.5927C216.032 76.649 216.262 75.6121 216.247 74.5643C216.283 73.7744 216.047 72.996 215.577 72.36C215.334 72.0661 215.026 71.8334 214.677 71.681C214.327 71.5285 213.947 71.4604 213.567 71.4823C213.238 71.4692 212.91 71.5217 212.602 71.6367C212.293 71.7518 212.011 71.927 211.771 72.1523C211.551 72.3692 211.377 72.6293 211.262 72.9164C211.147 73.2035 211.092 73.5113 211.101 73.8206C211.102 74.0452 211.122 74.2694 211.161 74.4906C211.195 74.705 211.242 74.9462 211.302 75.2075L208.475 75.7502C208.375 75.4599 208.298 75.1619 208.247 74.8591C208.19 74.5655 208.16 74.2671 208.16 73.968C208.13 73.2925 208.237 72.6178 208.474 71.9846C208.711 71.3513 209.074 70.7725 209.54 70.283C210.077 69.7826 210.711 69.3978 211.402 69.1523C212.093 68.9068 212.828 68.8059 213.56 68.8559C214.324 68.8094 215.09 68.9197 215.81 69.1801C216.53 69.4405 217.19 69.8455 217.748 70.3701C218.272 70.9467 218.675 71.6229 218.933 72.3584C219.19 73.0938 219.298 73.8736 219.248 74.6514C219.267 75.8311 219.025 77.0003 218.538 78.0751C218.053 79.1144 217.403 80.069 216.615 80.9025C215.77 81.8089 214.875 82.6678 213.935 83.4753V86.2156H211.195ZM211.054 91.9575V88.8487H214.083V91.9575H211.054Z" stroke="black" stroke-miterlimit="10"/>
</g>
<g opacity="0.3">
<path d="M211.068 262.64V259.129C211.965 258.336 212.819 257.495 213.627 256.61C214.36 255.826 214.974 254.939 215.449 253.977C215.904 253.035 216.134 252.001 216.119 250.955C216.156 250.163 215.919 249.383 215.449 248.744C215.207 248.45 214.899 248.218 214.549 248.065C214.2 247.913 213.82 247.845 213.439 247.867C213.111 247.853 212.783 247.906 212.474 248.021C212.166 248.136 211.884 248.311 211.644 248.537C211.423 248.753 211.25 249.014 211.134 249.301C211.019 249.588 210.965 249.896 210.974 250.205C210.974 250.43 210.994 250.654 211.034 250.875C211.065 251.089 211.112 251.33 211.175 251.598L208.347 252.134C208.246 251.844 208.17 251.546 208.12 251.243C208.062 250.95 208.033 250.651 208.033 250.352C208.006 249.673 208.118 248.996 208.361 248.361C208.604 247.727 208.973 247.148 209.446 246.661C209.979 246.164 210.607 245.782 211.293 245.537C211.978 245.291 212.706 245.188 213.433 245.233C214.191 245.194 214.95 245.309 215.663 245.572C216.376 245.835 217.028 246.239 217.58 246.761C218.104 247.338 218.507 248.014 218.765 248.749C219.023 249.485 219.13 250.265 219.081 251.042C219.1 252.222 218.857 253.391 218.371 254.466C217.887 255.506 217.237 256.461 216.448 257.293C215.603 258.2 214.708 259.059 213.768 259.866V262.64H211.068ZM210.927 268.375V265.266H213.955V268.375H210.927Z" stroke="black" stroke-miterlimit="10"/>
</g>
<g opacity="0.3">
<path d="M39.4404 98.0545V94.5504C40.337 93.7654 41.1913 92.9334 41.9998 92.058C42.7309 91.2751 43.3447 90.3904 43.8222 89.4316C44.2772 88.4877 44.5066 87.4509 44.4922 86.4032C44.5291 85.6132 44.2925 84.8347 43.8222 84.1989C43.3349 83.6808 42.668 83.3686 41.958 83.3263C41.248 83.2839 40.5487 83.5146 40.0032 83.9711C39.7826 84.188 39.6092 84.4481 39.4939 84.7352C39.3786 85.0223 39.3239 85.3301 39.3332 85.6394C39.3341 85.8638 39.3521 86.0877 39.3868 86.3094C39.427 86.5327 39.4739 86.7739 39.5275 87.033L36.7001 87.569C36.6037 87.2781 36.5298 86.9801 36.479 86.6779C36.4216 86.3843 36.3925 86.0859 36.3919 85.7868C36.3657 85.1078 36.4775 84.4306 36.7205 83.7961C36.9635 83.1615 37.3326 82.5829 37.8056 82.0951C38.3384 81.599 38.9666 81.2166 39.652 80.9712C40.3374 80.7258 41.0655 80.6227 41.7921 80.668C42.5563 80.6234 43.3215 80.7347 44.0414 80.995C44.7612 81.2553 45.4207 81.6592 45.9796 82.1822C46.5034 82.7605 46.9061 83.4379 47.1639 84.1743C47.4216 84.9108 47.5293 85.6914 47.4804 86.4702C47.4956 87.6473 47.2532 88.8136 46.7702 89.8872C46.2862 90.9273 45.6368 91.8822 44.8473 92.7146C43.9931 93.6259 43.0871 94.4871 42.1338 95.2941V98.0344L39.4404 98.0545ZM39.2997 103.796V100.681H42.3214V103.796H39.2997Z" stroke="black" stroke-miterlimit="10"/>
</g>
<g opacity="0.3">
<path d="M93.3017 171.353V167.848C94.1983 167.063 95.0526 166.231 95.8611 165.356C96.595 164.574 97.2111 163.689 97.6902 162.73C98.1422 161.785 98.3715 160.749 98.3602 159.701C98.3971 158.911 98.1605 158.133 97.6902 157.497C97.2029 156.979 96.536 156.667 95.826 156.624C95.116 156.582 94.4167 156.813 93.8712 157.269C93.6506 157.486 93.4772 157.746 93.3619 158.033C93.2466 158.32 93.1919 158.628 93.2012 158.937C93.1996 159.162 93.2175 159.386 93.2548 159.607C93.295 159.822 93.3419 160.063 93.3955 160.324L90.5681 160.86C90.4725 160.569 90.3964 160.271 90.3403 159.969C90.2882 159.677 90.2613 159.381 90.2599 159.085C90.2326 158.406 90.3438 157.728 90.5868 157.093C90.8299 156.459 91.1997 155.88 91.6736 155.393C92.2098 154.892 92.8432 154.505 93.5348 154.259C94.2263 154.012 94.9611 153.91 95.6936 153.959C96.4577 153.916 97.2228 154.027 97.9425 154.287C98.6622 154.548 99.3217 154.951 99.8811 155.474C100.404 156.052 100.805 156.73 101.062 157.466C101.318 158.203 101.425 158.983 101.375 159.762C101.392 160.94 101.152 162.109 100.672 163.185C100.184 164.223 99.5346 165.177 98.7488 166.013C97.8921 166.922 96.9839 167.781 96.0286 168.585V171.326L93.3017 171.353ZM93.161 177.094V173.986H96.1894V177.094H93.161Z" stroke="black" stroke-miterlimit="10"/>
</g>
<g opacity="0.3">
<path d="M298.409 127.97V124.459C299.307 123.678 300.161 122.848 300.968 121.974C301.701 121.189 302.315 120.302 302.791 119.34C303.247 118.399 303.476 117.364 303.461 116.319C303.497 115.527 303.26 114.746 302.791 114.108C302.548 113.815 302.239 113.583 301.89 113.432C301.541 113.28 301.16 113.213 300.781 113.237C300.451 113.222 300.121 113.274 299.812 113.389C299.502 113.504 299.219 113.68 298.978 113.907C298.756 114.123 298.582 114.383 298.467 114.67C298.351 114.957 298.297 115.266 298.308 115.575C298.308 115.8 298.329 116.024 298.369 116.245C298.402 116.466 298.449 116.701 298.509 116.969L295.682 117.505C295.584 117.214 295.508 116.916 295.454 116.614C295.4 116.319 295.371 116.021 295.367 115.722C295.342 115.044 295.454 114.367 295.697 113.732C295.94 113.098 296.309 112.519 296.781 112.031C297.317 111.53 297.951 111.146 298.643 110.9C299.334 110.655 300.069 110.554 300.801 110.604C301.564 110.558 302.329 110.668 303.048 110.929C303.767 111.189 304.425 111.594 304.981 112.118C305.505 112.695 305.908 113.371 306.165 114.106C306.423 114.842 306.531 115.621 306.482 116.399C306.501 117.579 306.259 118.748 305.772 119.823C305.288 120.863 304.639 121.818 303.849 122.65C302.997 123.561 302.09 124.42 301.136 125.223V127.97H298.409ZM298.268 133.712V130.596H301.33V133.712H298.268Z" stroke="black" stroke-miterlimit="10"/>
</g>
<path d="M292.653 303.048H302.717" stroke="#263238" stroke-linecap="round" stroke-linejoin="round"/>
<path d="M35.5276 303.048H286.168" stroke="#263238" stroke-linecap="round" stroke-linejoin="round"/>
<path opacity="0.2" d="M235.509 191.205C235 190.564 234.427 189.976 233.801 189.449C233.6 189.275 233.426 189.114 233.285 188.98C233.144 188.846 217.446 169.791 216.16 167.607C215.778 166.937 215.309 165.966 214.82 164.927C213.413 161.993 212.347 159.882 211.403 159.453C211.336 159.42 206.498 157.276 202.807 155.869C205.125 154.944 207.584 153.544 207.101 150.375C206.753 148.083 205.513 146.355 204.421 144.78C203.081 142.884 201.929 141.249 202.786 139.186C203.374 137.894 204.151 136.697 205.091 135.635C206.599 133.772 208.153 131.836 207.919 128.218C207.597 123.334 204.669 111.22 198.056 107.032C191.906 103.14 176.784 102.845 175.946 102.832C175.109 102.818 168.938 102.162 167.491 104.265L167.297 104.547C166.984 104.976 166.698 105.423 166.439 105.887C164.603 105.572 162.198 105.592 160.918 107.341C159.344 109.485 161.729 113.129 163.357 115.18C162.921 115.897 162.493 116.62 162.091 117.317C159.766 121.337 159.726 121.431 160.201 122.241L160.268 122.355C160.586 123.042 160.812 123.767 160.938 124.513C159.525 126.181 157.206 128.814 156.684 129.109C156.574 129.167 156.48 129.25 156.409 129.351C156.338 129.453 156.292 129.569 156.275 129.692C156.181 130.362 156.945 131.226 157.93 132.191L158.781 133.055C158.901 133.725 159.518 137.471 160 140.231C159.974 140.197 159.942 140.168 159.906 140.144C159.391 139.829 158.767 140.405 158.566 140.586C157.226 141.805 154.272 146.616 154.031 147.956C153.862 149.764 153.788 151.58 153.809 153.396C153.474 153.825 153.173 154.234 152.912 154.602C145.575 156.418 138.654 158.395 138.507 159.426C138.265 161.128 137.89 181.342 138.507 190.675C138.723 194.138 138.67 197.613 138.346 201.067C138.138 203.633 138.004 205.328 138.667 206.521C139.451 207.695 140.391 208.756 141.461 209.676C142.768 211.995 145.481 216.129 147.853 217.917C147.806 218.031 147.766 218.145 147.719 218.266C145.14 224.892 140.108 239.116 139.311 251.304C138.239 267.732 148.51 302.76 148.61 303.108C148.629 303.175 148.67 303.235 148.725 303.277C148.781 303.319 148.849 303.342 148.918 303.342H171.518C171.603 303.342 171.685 303.309 171.745 303.248C171.805 303.188 171.839 303.106 171.839 303.021V259.799C171.839 259.622 171.91 259.451 172.035 259.325C172.161 259.2 172.331 259.129 172.509 259.129C172.687 259.129 172.857 259.2 172.983 259.325C173.109 259.451 173.179 259.622 173.179 259.799V303.061C173.181 303.146 173.215 303.227 173.275 303.287C173.335 303.347 173.416 303.381 173.501 303.383H196.1C196.163 303.383 196.225 303.365 196.277 303.331C196.33 303.296 196.371 303.247 196.395 303.188C196.535 302.867 210.177 271.136 207.409 250.547C206.646 244.858 205.647 239.706 204.602 235.217C205.078 235.329 205.567 235.377 206.056 235.358C207.546 235.024 208.898 234.24 209.929 233.113C210.519 232.128 211.034 231.1 211.47 230.038L225.231 213.435C225.845 213.819 226.528 214.081 227.241 214.206C227.302 214.214 227.363 214.205 227.418 214.179C227.473 214.152 227.519 214.111 227.55 214.058C227.63 213.931 227.844 213.636 228.126 213.248C231.925 207.941 232.039 207.338 231.771 206.983C231.243 206.621 230.679 206.313 230.089 206.065C231.335 204.216 234.94 198.796 235.556 196.725C236.34 194.179 236.34 192.29 235.509 191.205ZM216.079 200.095L215.61 201.04C215.606 201.065 215.606 201.089 215.61 201.114L214.431 206.521C214.418 206.584 214.424 206.65 214.45 206.71C214.475 206.77 214.517 206.821 214.572 206.856L215.047 207.171L205.962 225.509C205.232 224.711 204.187 223.566 203.698 222.983L203.584 222.849C203.269 222.48 202.619 221.71 201.48 220.169C201.09 219.509 200.792 218.799 200.596 218.058C200.2 216.852 199.892 215.901 199.289 215.7C199.138 215.643 198.971 215.643 198.82 215.7C198.679 214.619 198.475 213.548 198.21 212.49C198.01 211.7 197.851 210.899 197.735 210.092C197.621 208.805 198.579 202.052 198.572 202.052L205.219 182.24L217.66 196.511C216.99 196.544 216.113 196.665 215.764 197.094C215.688 197.186 215.635 197.295 215.61 197.411C215.584 197.528 215.587 197.649 215.617 197.764C215.744 198.26 216.019 199.144 216.287 199.908C216.236 199.916 216.187 199.937 216.147 199.97C216.107 200.003 216.077 200.047 216.059 200.095H216.079ZM160.523 143.145C160.662 143.745 160.972 144.291 161.416 144.716C161.859 145.142 162.418 145.43 163.022 145.544C163.692 145.584 166.064 145.417 166.901 145.356C166.988 145.772 167.163 146.643 167.417 147.815C166.423 148.291 165.637 149.113 165.206 150.127C164.536 149.517 163.679 148.787 162.881 148.211C162.741 146.542 162.432 145.564 161.916 145.155C161.795 145.057 161.653 144.989 161.5 144.956C161.348 144.923 161.189 144.927 161.039 144.968C160.369 145.122 160 145.758 159.793 146.569C159.674 146.548 159.553 146.553 159.437 146.584C159.321 146.616 159.214 146.672 159.123 146.75C159.049 146.821 159.003 146.916 158.995 147.018C158.687 147.373 158.151 148.01 157.515 148.773L157.421 146.998C157.863 146.328 159.967 142.978 160.181 142.114C160.181 142.067 160.221 141.926 160.255 141.745C160.349 142.408 160.449 142.918 160.503 143.152L160.523 143.145Z" fill="black"/>
<path d="M198.545 248.382C195.644 226.768 189.581 212.725 189.581 212.725L138.56 210.97C138.56 210.97 129.368 231.934 128.236 249.16C127.103 266.385 137.917 303.021 137.917 303.021H161.461V257.95C161.461 257.673 161.571 257.407 161.767 257.211C161.963 257.015 162.229 256.905 162.506 256.905C162.783 256.905 163.049 257.015 163.245 257.211C163.441 257.407 163.551 257.673 163.551 257.95V303.021H187.102C187.102 303.021 201.453 270.01 198.545 248.382Z" fill="#263238" stroke="#263238" stroke-linecap="round" stroke-linejoin="round"/>
<path d="M189.581 212.725L138.56 210.97C138.56 210.97 137.93 212.41 136.979 214.835C139.9 215.981 147.384 218.36 161.622 219.673C175.859 220.986 185.842 216.484 190.117 214.045C189.782 213.181 189.581 212.725 189.581 212.725Z" fill="#999999" stroke="#263238" stroke-linecap="round" stroke-linejoin="round"/>
<path d="M162.895 221.006C162.895 221.006 173.085 224.148 174.62 223.639C176.154 223.13 176.067 220.577 174.62 219.552C173.172 218.527 163.297 216.015 163.297 216.015C163.297 216.015 160.911 215.552 159.98 216.685C159.593 217.246 159.407 217.922 159.453 218.602C159.5 219.282 159.775 219.926 160.235 220.43C160.999 220.999 162.895 221.006 162.895 221.006Z" fill="#999999" stroke="#263238" stroke-linecap="round" stroke-linejoin="round"/>
<path d="M162.895 221.006C162.228 221.006 161.589 220.742 161.118 220.27C160.647 219.799 160.382 219.16 160.382 218.494C160.382 217.827 160.647 217.188 161.118 216.717C161.589 216.246 162.228 215.981 162.895 215.981C163.029 215.982 163.164 215.993 163.297 216.015C162.839 215.77 162.328 215.641 161.809 215.64C161.406 215.62 161.004 215.683 160.626 215.824C160.248 215.965 159.902 216.182 159.61 216.46C159.318 216.739 159.086 217.073 158.927 217.444C158.768 217.815 158.686 218.214 158.686 218.618C158.686 219.021 158.768 219.42 158.927 219.791C159.086 220.162 159.318 220.497 159.61 220.775C159.902 221.054 160.248 221.27 160.626 221.411C161.004 221.552 161.406 221.615 161.809 221.596C162.613 221.596 162.399 221.77 162.948 221.294C162.64 221.415 163.25 221.006 162.895 221.006Z" fill="white" stroke="#263238" stroke-linecap="round" stroke-linejoin="round"/>
<path d="M156.282 145.45C156.282 145.45 127.659 151.681 127.405 153.49C127.15 155.299 126.768 176.331 127.405 185.972C128.041 195.613 126.259 200.042 127.532 202.347C128.805 204.652 134.386 208.94 135.143 209.576C135.9 210.213 139.331 213.254 139.331 213.254C139.331 213.254 145.294 215.412 161.159 216.939C177.025 218.467 189.453 214.018 189.581 212.752C189.708 211.486 188.569 207.673 188.442 206.28C188.314 204.886 189.333 197.777 189.333 197.777L196.435 176.585L210.27 192.444C210.27 192.444 207.476 192.317 207.731 193.335C207.986 194.354 208.87 196.98 208.87 196.98L221.814 202.434C221.814 202.434 227.174 194.695 227.905 192.156C228.635 189.617 228.669 187.714 227.905 186.702C227.211 185.876 226.446 185.111 225.62 184.418C225.118 183.908 208.997 164.244 207.731 162.086C206.465 159.929 204.301 154.341 202.907 153.711C201.513 153.082 191.865 148.894 190.11 148.74C188.355 148.586 176.656 143.28 156.282 145.45Z" fill="#A73E5C" stroke="#263238" stroke-linecap="round" stroke-linejoin="round"/>
<path d="M140.798 167.446L140.476 165.262" stroke="#263238" stroke-linecap="round" stroke-linejoin="round"/>
<path d="M142.761 180.746L141.066 169.289" stroke="#263238" stroke-linecap="round" stroke-linejoin="round"/>
<path d="M196.435 176.558L199.865 166.281" stroke="#263238" stroke-linecap="round" stroke-linejoin="round"/>
<path d="M201.091 167.982L202.023 165.899" stroke="#263238" stroke-linecap="round" stroke-linejoin="round"/>
<path d="M197.956 175.031L200.401 169.537" stroke="#263238" stroke-linecap="round" stroke-linejoin="round"/>
<path d="M162.204 205.898C161.534 209.918 160.362 212.946 160.65 213.228C161.11 213.794 161.533 214.389 161.916 215.01" stroke="#263238" stroke-linecap="round" stroke-linejoin="round"/>
<path d="M162.68 174.401C162.68 174.401 162.935 195.466 162.68 201.556C162.647 202.427 162.573 203.278 162.466 204.095" stroke="#263238" stroke-linecap="round" stroke-linejoin="round"/>
<path d="M176.522 184.766C175.494 184.781 174.467 184.666 173.467 184.424" stroke="#263238" stroke-linecap="round" stroke-linejoin="round"/>
<path d="M172.831 179.473C172.831 179.473 180.576 180.23 182.74 180.23C184.904 180.23 192.79 179.593 192.79 179.593L192.281 184.036C192.281 184.036 183.142 184.799 178.834 184.799" stroke="#263238" stroke-linecap="round" stroke-linejoin="round"/>
<path d="M187.678 195.084C190.217 194.193 191.108 186.836 191.108 186.836" stroke="#263238" stroke-linecap="round" stroke-linejoin="round"/>
<path d="M172.958 186.327C172.958 186.327 171.946 194.447 172.456 195.084C172.831 195.56 179.779 195.821 184.301 195.546" stroke="#263238" stroke-linecap="round" stroke-linejoin="round"/>
<path d="M153.166 177.188H158.111L158.238 182.012H152.021" stroke="#263238" stroke-linecap="round" stroke-linejoin="round"/>
<path d="M157.722 185.818C157.957 189.047 158.158 193.938 157.226 194.193C155.826 194.575 151.136 194.447 151.136 194.447" stroke="#263238" stroke-linecap="round" stroke-linejoin="round"/>
<path d="M157.481 183.031C157.481 183.031 157.568 183.861 157.662 185.074" stroke="#263238" stroke-linecap="round" stroke-linejoin="round"/>
<path d="M223.094 192.424C223.731 192.463 224.365 192.546 224.99 192.672" stroke="#263238" stroke-linecap="round" stroke-linejoin="round"/>
<path d="M212.3 192.672C212.3 192.672 217.299 192.263 221.312 192.344" stroke="#263238" stroke-linecap="round" stroke-linejoin="round"/>
<path d="M219.912 188.23C219.912 188.23 214.458 188.866 211.027 191.533" stroke="#263238" stroke-linecap="round" stroke-linejoin="round"/>
<path d="M158.653 98.6039C158.653 98.6039 152.898 96.346 150.721 99.3208C148.543 102.296 154.6 108.627 154.6 108.627L162.841 98.5771L158.653 98.6039Z" fill="#263238" stroke="#263238" stroke-linecap="round" stroke-linejoin="round"/>
<path d="M157.816 141.404C157.162 141.643 156.573 142.032 156.096 142.539C155.62 143.046 155.268 143.657 155.069 144.325C154.56 146.482 155.699 160.82 155.324 163.869C154.948 166.917 157.856 163.869 157.856 163.869L160.395 159.681C160.395 159.681 164.884 165.229 165.688 164.927C166.492 164.626 169.28 160.947 169.789 161.457C170.298 161.966 173.594 167.674 173.976 164.251C174.358 160.827 177.655 152.954 176.261 146.228C174.867 139.501 173.373 140.868 173.373 140.868L157.816 141.404Z" fill="#A73E5C" stroke="#263238" stroke-linecap="round" stroke-linejoin="round"/>
<path d="M157.95 100.011C157.95 100.011 154.466 105.331 151.96 109.686C149.454 114.041 149.602 113.793 150.064 114.604C150.419 115.405 150.664 116.25 150.794 117.116C150.794 117.116 146.982 121.639 146.171 122.094C145.361 122.55 146.567 123.809 147.511 124.774L148.476 125.752C148.476 125.752 150.024 135.052 150.319 136.365C150.449 136.919 150.735 137.423 151.144 137.819C151.552 138.214 152.066 138.484 152.624 138.596C153.394 138.65 156.912 138.382 156.912 138.382C156.912 138.382 159.196 149.946 161.776 157.303C164.355 164.659 164.878 165.57 165.655 164.921C166.432 164.271 170.432 157.303 173.662 144.519C176.891 131.735 177.749 131.039 177.749 131.039C177.749 131.039 180.154 117.096 176.087 110.47C172.02 103.843 162.928 97.3845 157.95 100.011Z" fill="white" stroke="#263238" stroke-linecap="round" stroke-linejoin="round"/>
<path d="M158.499 116.533C158.499 117.484 157.99 118.262 157.36 118.262C156.731 118.262 156.221 117.484 156.221 116.533C156.221 115.582 156.731 114.805 157.36 114.805C157.99 114.805 158.499 115.575 158.499 116.533Z" fill="#263238"/>
<path d="M162.151 112.252C158.566 107.113 155.357 111.582 155.357 111.582" stroke="#263238" stroke-linecap="round" stroke-linejoin="round"/>
<path d="M150.801 117.116C151.079 116.917 151.305 116.654 151.462 116.35C151.618 116.046 151.699 115.709 151.699 115.367L151.793 114.074" stroke="#263238" stroke-linecap="round" stroke-linejoin="round"/>
<path d="M156.945 138.389L163.625 137.879L159.102 147.333L156.945 138.389Z" fill="#263238" stroke="#263238" stroke-linecap="round" stroke-linejoin="round"/>
<path d="M152.181 127.682L154.325 127.086" stroke="#263238" stroke-linecap="round" stroke-linejoin="round"/>
<path d="M166.091 94.7581C166.091 94.7581 159.022 94.001 157.582 96.0981C156.141 98.1952 154.902 99.6625 158.051 102.349C161.2 105.036 165.179 107.77 165.019 110.088C164.858 112.406 167.122 115.153 168.884 115.796C170.647 116.439 173.032 113.887 172 117.565C170.968 121.243 164.596 121.585 165.782 126.838C166.968 132.091 171.404 133.451 169.621 134.878C167.839 136.305 162.071 140.392 163.102 146.462C164.134 152.532 171.236 156.793 170.332 159.507C169.427 162.22 161.682 162.857 161.555 166.877C161.427 170.897 166.332 175.399 169.3 176.043C172.268 176.686 176 175.781 176 175.781C176 175.781 172.516 171.138 173.809 170.488C175.102 169.838 181.3 169.818 186.981 167.647C192.663 165.477 193.567 157.597 192.401 155.252C191.236 152.907 189.051 152.666 190.211 151.119C191.37 149.571 199.021 149.249 198.251 144.01C197.48 138.77 192.053 136.325 193.768 132.178C195.483 128.03 199.47 126.623 199.095 120.902C198.72 115.18 195.403 103.18 188.958 99.0796C182.512 94.9792 166.091 94.7581 166.091 94.7581Z" fill="#263238" stroke="#263238" stroke-linecap="round" stroke-linejoin="round"/>
<path d="M133.622 193.563C133.622 193.563 129.18 202.568 129.689 204.095C130.199 205.623 136.289 215.639 139.203 214.882C142.118 214.125 146.058 209.522 146.949 207.264C147.84 205.007 148.851 198.253 148.851 198.253C148.851 198.253 141.997 199.827 140.222 199.298C138.446 198.769 133.622 193.563 133.622 193.563Z" fill="#A73E5C" stroke="#263238" stroke-linecap="round" stroke-linejoin="round"/>
<path d="M154.185 157.303C154.185 157.303 153.595 155.963 152.751 153.758C151.907 151.554 152.248 146.676 152.248 144.231C152.248 141.785 152.081 138.328 150.647 138.663C149.213 138.998 149.307 142.288 149.548 143.896C149.789 145.504 149.032 150.449 148.657 150.884C148.413 151.172 148.202 151.487 148.027 151.822C148.027 151.822 151.317 157.892 152.583 159.071C153.85 160.251 154.185 157.303 154.185 157.303Z" fill="white" stroke="#263238" stroke-linecap="round" stroke-linejoin="round"/>
<path d="M143.344 148.224C143.344 148.224 143.344 142.79 143.572 141.524C143.8 140.258 146.808 135.28 148.195 134.013C149.582 132.747 149.582 134.355 149.347 135.28C149.113 136.204 146.46 140.365 146.46 140.365L146.694 144.874L143.344 148.224Z" fill="white" stroke="#263238" stroke-linecap="round" stroke-linejoin="round"/>
<path d="M148.771 140.6C148.771 140.6 141.495 149.149 141.401 150.187C141.307 151.226 148.101 162.207 148.222 162.555C148.342 162.904 139.672 182.655 139.672 182.655L135.512 192.25C135.512 192.25 138.748 197.449 140.249 199.298C141.749 201.147 143.022 201.375 144.175 200.799C145.327 200.223 148.912 197.215 148.912 197.215L153.883 162.897C153.883 162.897 155.036 160.472 155.036 159.085C155.036 157.698 148.684 150.884 148.684 150.884L149.722 149.376C149.722 149.376 156.657 151.688 157.468 151.112C158.278 150.536 157.327 149.544 157.327 149.544L155.27 148.338C155.27 148.338 157.119 148.619 157.119 147.876C157.037 147.536 156.879 147.22 156.657 146.951C156.717 146.691 156.717 146.421 156.656 146.16C156.596 145.9 156.477 145.657 156.309 145.45C155.732 144.78 151.176 140.801 149.91 140.452C148.644 140.104 148.771 140.6 148.771 140.6Z" fill="white" stroke="#263238" stroke-linecap="round" stroke-linejoin="round"/>
<path d="M156.61 146.951C156.61 146.951 150.942 143.018 150.024 142.167C149.106 141.316 146.151 145.169 145.562 145.953" fill="white"/>
<path d="M156.61 146.951C156.61 146.951 150.942 143.018 150.024 142.167C149.106 141.316 146.151 145.169 145.562 145.953" stroke="#263238" stroke-linecap="round" stroke-linejoin="round"/>
<path d="M155.27 148.338C153.604 147.714 151.987 146.966 150.433 146.1C149.186 145.249 148.007 145.43 147.679 145.705C147.351 145.98 144.262 149.584 144.262 149.584" fill="white"/>
<path d="M155.27 148.338C153.604 147.714 151.987 146.966 150.433 146.1C149.186 145.249 148.007 145.43 147.679 145.705C147.351 145.98 144.262 149.584 144.262 149.584" stroke="#263238" stroke-linecap="round" stroke-linejoin="round"/>
<path d="M136.416 187.6C136.416 187.6 141.615 197.757 143.116 197.757C144.617 197.757 149.716 193.315 149.716 193.315C149.716 193.315 151.726 197.63 151.364 198.514C151.002 199.399 142.359 204.859 140.711 204.859C139.063 204.859 131.063 195.6 132.209 193.57C133.354 191.54 135.652 187.091 136.416 187.6Z" fill="#A73E5C" stroke="#263238" stroke-linecap="round" stroke-linejoin="round"/>
<path d="M197.929 223.371C197.929 223.371 195.571 220.832 194.726 219.834C194.445 219.492 193.762 218.715 192.408 216.912C191.41 215.572 191.015 211.666 189.869 212.45C188.723 213.234 188.783 215.613 189.252 216.47C189.637 217.031 189.947 217.639 190.177 218.279C190.231 218.661 191.624 222.299 191.624 222.299C191.624 222.299 196.73 227.177 197.051 226.112C197.373 225.046 197.929 223.371 197.929 223.371Z" fill="white" stroke="#263238" stroke-linecap="round" stroke-linejoin="round"/>
<path d="M207.845 201.804L196.951 223.78C196.951 223.78 187.263 217.328 186.773 217.328C186.284 217.328 180.898 220.638 180.073 221.247C179.249 221.857 177.99 225.783 177.742 226.882C177.494 227.981 177.621 228.845 178.479 228.222C179.336 227.599 181.789 223.445 181.789 223.445L185.708 221.737C185.708 221.737 181.688 226.145 181.541 226.634C181.393 227.123 178.727 232.51 178.727 233.247C178.727 233.984 180.315 232.999 180.315 232.999C180.315 232.999 179.705 235.331 180.315 235.331C180.924 235.331 183.504 233.495 184.335 232.758L187.015 230.433L189.829 228.839C189.829 228.839 186.894 232.758 186.398 233.368C185.902 233.977 183.095 237.046 184.321 237.287C185.547 237.528 189.34 233.857 189.34 233.857L192.77 231.177C192.77 231.177 196.321 232.282 197.426 232.155C198.885 231.817 200.208 231.049 201.225 229.951C201.83 228.929 202.361 227.866 202.813 226.768L218.86 207.419L207.845 201.804Z" fill="white" stroke="#263238" stroke-linecap="round" stroke-linejoin="round"/>
<path d="M180.281 233.033L185.916 226.788C185.916 226.788 188.247 224.584 190.204 224.953" fill="white"/>
<path d="M180.281 233.033L185.916 226.788C185.916 226.788 188.247 224.584 190.204 224.953" stroke="#263238" stroke-linecap="round" stroke-linejoin="round"/>
<path d="M185.675 221.77C185.675 221.77 187.142 220.296 188.247 220.296L185.675 221.77Z" fill="white"/>
<path d="M185.675 221.77C185.675 221.77 187.142 220.296 188.247 220.296" stroke="#263238" stroke-linecap="round" stroke-linejoin="round"/>
<path d="M207.724 196.9L206.498 202.534C206.498 202.534 219.114 210.862 219.603 210.132C220.092 209.402 224.38 203.64 224.012 203.151C223.643 202.662 208.2 195.921 208.2 195.921L207.724 196.9Z" fill="#A73E5C" stroke="#263238" stroke-linecap="round" stroke-linejoin="round"/>
</svg>
