<svg width="818" height="204" viewBox="0 0 818 204" fill="none" xmlns="http://www.w3.org/2000/svg">
<g clip-path="url(#clip0_929_510)">
<path d="M818 152L798.459 150.18C778.918 148.36 739.836 144.72 700.935 145.916C661.944 147.164 623.225 153.196 584.234 154.08C545.333 154.964 506.251 150.596 467.351 146.696C428.359 142.796 389.641 139.364 350.649 137.596C311.749 135.88 272.667 135.88 233.766 136.036C194.775 136.244 156.056 136.556 117.065 139.156C78.1644 141.756 39.0822 146.644 19.5411 149.036L0 151.48V204.52H19.5411C39.0822 204.52 78.1644 204.52 117.065 204.52C156.056 204.52 194.775 204.52 233.766 204.52C272.667 204.52 311.749 204.52 350.649 204.52C389.641 204.52 428.359 204.52 467.351 204.52C506.251 204.52 545.333 204.52 584.234 204.52C623.225 204.52 661.944 204.52 700.935 204.52C739.836 204.52 778.918 204.52 798.459 204.52H818V152Z" fill="#A73E5C"/>
<path d="M818 165L798.459 164.22C778.918 163.44 739.836 161.88 700.935 159.436C661.944 157.044 623.225 153.716 584.234 154.6C545.333 155.484 506.251 160.476 467.351 160.424C428.359 160.32 389.641 155.12 350.649 154.704C311.749 154.236 272.667 158.604 233.766 162.296C194.775 166.04 156.056 169.16 117.065 169.004C78.1644 168.796 39.0822 165.364 19.5411 163.596L0 161.88V204.52H19.5411C39.0822 204.52 78.1644 204.52 117.065 204.52C156.056 204.52 194.775 204.52 233.766 204.52C272.667 204.52 311.749 204.52 350.649 204.52C389.641 204.52 428.359 204.52 467.351 204.52C506.251 204.52 545.333 204.52 584.234 204.52C623.225 204.52 661.944 204.52 700.935 204.52C739.836 204.52 778.918 204.52 798.459 204.52H818V165Z" fill="#A5304A"/>
<path d="M818 162.92L798.459 166.3C778.918 169.68 739.836 176.44 700.935 175.556C661.944 174.724 623.225 166.196 584.234 165.52C545.333 164.844 506.251 171.916 467.351 172.124C428.359 172.28 389.641 165.52 350.649 162.14C311.749 158.76 272.667 158.76 233.766 163.024C194.775 167.236 156.056 175.764 117.065 177.116C78.1644 178.52 39.0822 172.8 19.5411 169.94L0 167.08V204.52H19.5411C39.0822 204.52 78.1644 204.52 117.065 204.52C156.056 204.52 194.775 204.52 233.766 204.52C272.667 204.52 311.749 204.52 350.649 204.52C389.641 204.52 428.359 204.52 467.351 204.52C506.251 204.52 545.333 204.52 584.234 204.52C623.225 204.52 661.944 204.52 700.935 204.52C739.836 204.52 778.918 204.52 798.459 204.52H818V162.92Z" fill="#A12136"/>
<path d="M818 174.88L798.459 177.48C778.918 180.08 739.836 185.28 700.935 187.62C661.944 189.96 623.225 189.44 584.234 188.244C545.333 186.996 506.251 185.124 467.351 182.16C428.359 179.196 389.641 175.244 350.649 173.216C311.749 171.24 272.667 171.24 233.766 171.76C194.775 172.28 156.056 173.32 117.065 173.736C78.1644 174.204 39.0822 173.996 19.5411 173.944L0 173.84V204.52H19.5411C39.0822 204.52 78.1644 204.52 117.065 204.52C156.056 204.52 194.775 204.52 233.766 204.52C272.667 204.52 311.749 204.52 350.649 204.52C389.641 204.52 428.359 204.52 467.351 204.52C506.251 204.52 545.333 204.52 584.234 204.52C623.225 204.52 661.944 204.52 700.935 204.52C739.836 204.52 778.918 204.52 798.459 204.52H818V174.88Z" fill="#9B1122"/>
</g>
<defs>
<clipPath id="clip0_929_510">
<rect width="818" height="312" fill="white" transform="matrix(-1 0 0 1 818 -108)"/>
</clipPath>
</defs>
</svg>
