<svg xmlns="http://www.w3.org/2000/svg" xmlns:xlink="http://www.w3.org/1999/xlink" viewBox="0 0 500 500"><defs><clipPath id="freepik--clip-path--inject-65"><path d="M137.9,293.37s-.18,9.74-.18,17.64,4.22,18.19,4.22,18.19-.18,3.86.92,6.25,5.15,7,6.25,6.8,1.47-3.31,1.65-7.17-4.77-7-4.77-10.84,1.65-12.49,2.57-17.45.73-13.6.73-13.6l-11.2-.55Z" style="fill:#fff;stroke:#263238;stroke-linecap:round;stroke-linejoin:round;stroke-width:0.75px"></path></clipPath><clipPath id="freepik--clip-path-2--inject-65"><path d="M191.89,248.45l10.23-6.25,15.73-18a31.13,31.13,0,0,1,3.6-6.06c1.71-1.9,6.82-6.45,7.39-5.5s.95,1.14,0,2.09l-3.22,3.22s3.6,3,3.79,4a5.17,5.17,0,0,1-.57,4c-.94,1.32-1.51-.38-1.51-.38a15.33,15.33,0,0,1-2.66,3.79,4.43,4.43,0,0,1-2.65,1.14l-1.71.37s-5.3,10.81-7.77,14-4,4.93-6.06,6.06-14.59,8.15-14.59,8.15Z" style="fill:#fff;stroke:#263238;stroke-linecap:round;stroke-linejoin:round;stroke-width:0.75px"></path></clipPath><clipPath id="freepik--clip-path-3--inject-65"><path d="M150.58,336.37s.55,15.07.55,17.27-3.31,10.84-3.31,15.25,3.31,37.09,3.31,42.6-.55,7.35,2.39,7.91,4.78.73,5.88-3.13,0-28.45,1.1-38.74,3.13-21.32,3.31-27.56a64.48,64.48,0,0,1,1.65-12.13,26.75,26.75,0,0,1-7-.74A33,33,0,0,0,150.58,336.37Z" style="fill:#fff;stroke:#263238;stroke-linecap:round;stroke-linejoin:round;stroke-width:0.75px"></path></clipPath><clipPath id="freepik--clip-path-4--inject-65"><path d="M167.67,339.86s.73,12.5,0,16.54-2.57,6.61-2.76,11.21,2.94,41.31,2.94,45.91-2.2,5.51,2,7,19.48-3.68,19.48-5.7-9.92-2.2-11-4.78-1.14-34.89.69-44.44,4.1-27.64,4.1-27.64Z" style="fill:#fff;stroke:#263238;stroke-linecap:round;stroke-linejoin:round;stroke-width:0.75px"></path></clipPath><clipPath id="freepik--clip-path-5--inject-65"><path d="M146.72,308.62l.35,40.78s1.84,1.65,6.62,2.39a26.49,26.49,0,0,0,9.55-.55l-.18,2.57s2.94,1.84,9.73,2,12.68-4,12.68-4l-3.1-43.35s-14.88,3.68-24.81,1.29S148.19,305.13,146.72,308.62Z" style="fill:#fff;stroke:#263238;stroke-linecap:round;stroke-linejoin:round;stroke-width:0.75px"></path></clipPath><clipPath id="freepik--clip-path-6--inject-65"><path d="M83.86,342.27a21.69,21.69,0,0,1-.4,10.44c-1.61,6.22-1.81,9-1.21,14.85s6.22,32.1,5.62,35.71-1,4.62-.2,6.62,3.61,2.21,5.62.4,3.81-2.4,4.41-4.61-1.8-4-2.4-6-1.81-30.3-1.81-38.12a157.88,157.88,0,0,1,1.6-18.66Z" style="fill:#fff;stroke:#263238;stroke-linecap:round;stroke-linejoin:round;stroke-width:0.75px"></path></clipPath><clipPath id="freepik--clip-path-7--inject-65"><path d="M103.72,345.08s.8,3.21-.6,9.43-2,7.23-1,14.25,9.61,37.95,10,39.76,0,4.21.2,5.61,3.81,1,5.82.61,9.43-1.81,10.84-2.61,3.41-1.41,1.2-2.41-9-1-10.23-2.61-3.41-6.42-3.41-9-4-31.73-3.4-37.55,1.61-17.85,1.61-17.85Z" style="fill:#fff;stroke:#263238;stroke-linecap:round;stroke-linejoin:round;stroke-width:0.75px"></path></clipPath><clipPath id="freepik--clip-path-8--inject-65"><path d="M104.73,277.87a44.9,44.9,0,0,0,2.6,9.23c2,5,7,13.24,8.63,10.23s1.61-10,.8-14.45-2.4-9.23-2.4-11.43.6-4.42,0-6.22-5-3.82-5-3.82Z" style="fill:#fff;stroke:#263238;stroke-linecap:round;stroke-linejoin:round;stroke-width:0.75px"></path></clipPath><clipPath id="freepik--clip-path-9--inject-65"><path d="M110.14,228.61s1.8,8.45,1.8,11.87-5.75,9.35-7.55,9.17-5.94-5-7.38-8.81,3.78-10.07,5.4-11.15S109.24,227.71,110.14,228.61Z" style="fill:#fff;stroke:#263238;stroke-linecap:round;stroke-linejoin:round;stroke-width:0.75px"></path></clipPath></defs><g id="freepik--Map--inject-65"><polygon points="174.46 127.39 252.4 113.9 327.04 128.16 398.29 116.46 398.29 378.31 327.15 391.31 252.4 377.65 173.32 390.09 114.73 377.28 114.73 117.48 174.46 127.39" style="fill:#B22222;stroke:#263238;stroke-miterlimit:10"></polygon><path d="M135.2,152.6,155.56,156a.83.83,0,0,0,.22,0,1.09,1.09,0,0,0,.14-2.17l-20.37-3.34a1.09,1.09,0,1,0-.35,2.15Z" style="fill:#263238"></path><path d="M168.78,284.07l-10.93-5.89-18.5,43.88L173.92,339V285.07A8.76,8.76,0,0,1,168.78,284.07Z" style="fill:#263238"></path><polygon points="138.4 267.68 123.15 304.75 123.15 349.23 153.98 276.09 138.4 267.68" style="fill:#263238"></polygon><polygon points="123.15 360.49 123.15 369.87 173.92 382.36 173.92 341.44 138.5 324.07 123.15 360.49" style="fill:#263238"></polygon><path d="M123.15,254.49l47.7,25.74a4.47,4.47,0,0,0,3.07.4v-56.8l-50.77-24.14Z" style="fill:#263238"></path><path d="M136.12,165.42a1.09,1.09,0,1,0-.35,2.15l20.36,3.35a.83.83,0,0,0,.22,0,1.09,1.09,0,0,0,.14-2.17Z" style="fill:#263238"></path><path d="M135.84,157.93a1.09,1.09,0,0,0-.36,2.16l20.37,3.35h.22a1.09,1.09,0,0,0,.13-2.17Z" style="fill:#263238"></path><path d="M332.42,167a30.27,30.27,0,0,1-4.83,2.64v65.08L361.1,147.6Z" style="fill:#263238"></path><polygon points="358.07 222.83 379.4 171.51 368.59 140.32 343.42 205.77 358.07 222.83" style="fill:#263238"></polygon><path d="M362.47,144l6-15.55L327.59,136v31.28a29.42,29.42,0,0,0,3.61-2.06Z" style="fill:#263238"></path><polygon points="123.15 259.46 123.15 293.26 134.53 265.59 123.15 259.46" style="fill:#263238"></polygon><path d="M188.34,266.56l-7.66,14a8.79,8.79,0,0,1-5.67,4.32v53.32l45.71-38.89Z" style="fill:#263238"></path><path d="M284,289.18a4.39,4.39,0,0,0,4.06-1.59l33.28-41c-5.33-11.41-13.19-19.05-23.37-22.7-17.3-6.21-36.7.71-42.62,3.15l25.19,59.46A4.39,4.39,0,0,0,284,289.18Z" style="fill:#263238"></path><path d="M265.83,351.06c7.8-4.16,49-26.09,49.47-26.32,2.13-1.13,3.3-2.38,3.58-3.8.68-3.42-3.46-8.42-7.12-12.83-3.18-3.84-6.18-7.47-6.92-10.85-2-9.2,3.71-12.94,8.3-15.95,2-1.32,3.93-2.57,5-4.11,2.06-3-1.55-10.15-4.32-14.34L291.5,290.35a8.76,8.76,0,0,1-6.81,3.25,8.9,8.9,0,0,1-1.26-.09,8.7,8.7,0,0,1-6.87-5.28L252.94,232.5v93.17l1.5,1.52Z" style="fill:#263238"></path><path d="M218.34,192.5a73.34,73.34,0,0,1-2.59,10.17C212.51,211.56,179.28,222.6,175,224v56.26a4.35,4.35,0,0,0,1.83-1.8l42-76.71a8.82,8.82,0,0,1,14.3-1.63l18.7,21V154c-7.2,2.3-14.42,4.85-20.29,8.92C223.05,168.8,220.33,182.5,218.34,192.5Z" style="fill:#263238"></path><polygon points="378.99 247.2 389.87 259.87 389.87 222.92 379.17 247.28 378.99 247.2" style="fill:#263238"></polygon><path d="M348.94,315a6.1,6.1,0,0,0,2.11,6.61l24.1,18.66a19.72,19.72,0,0,1,4.43,26.22l-4.59,7-5.93,1.09,6.86-10.51a15.32,15.32,0,0,0-3.44-20.37L348.37,325.1a10.52,10.52,0,0,1-3.58-11.45L369.61,243l-28-32.59L328.33,245l-.74.91V382.65l62.27-11.81V266.58l-17-19.76Z" style="fill:#263238"></path><path d="M301.53,168.71l-36.32-19.15c-3.2,1.21-6.65,2.29-10.2,3.41l-2.07.65v68.7l.66.74c6.3-2.67,26.82-10.1,45.86-3.28,10.75,3.85,19.14,11.61,25,23.08l.08-.09,2-5.19V170.13a30,30,0,0,1-25-1.42Z" style="fill:#263238"></path><path d="M252.94,149l.76-.24c6.86-2.16,13.34-4.19,17.89-7.17,4.05-2.66,8.35-8.09,12-13.57l4.66.89C284.13,135.3,279,142,274,145.29a39.55,39.55,0,0,1-6.12,3.19l34.69,18.3a27.83,27.83,0,0,0,23.94,1V136l-73.55-13.8Z" style="fill:#263238"></path><polygon points="361.26 226.55 375.97 243.68 389.87 212.05 389.87 201.72 381.55 177.72 361.26 226.55" style="fill:#263238"></polygon><polygon points="373.5 127.56 370.84 134.46 383.9 171.16 389.87 188.37 389.87 124.55 373.5 127.56" style="fill:#263238"></polygon><path d="M175,219.29c14-5.32,34.83-14.14,36.75-18.42.83-1.84,1.51-5.26,2.29-9.22,2.13-10.73,5-25.43,15-32.35,6.76-4.69,14.84-7.41,22.79-9.92V122.27L175,135Z" style="fill:#263238"></path><path d="M321.74,279.67c-1.55,2.25-3.92,3.8-6.2,5.3-4.83,3.16-7.73,5.4-6.43,11.35.52,2.35,3.32,5.73,6,9,4.49,5.42,9.12,11,8,16.47-.54,2.75-2.5,5-5.81,6.81L267.71,355l9.25,19.4,49.3,8.49.23,0V247.25l-9.8,12.07C318.71,262.17,326.07,273.37,321.74,279.67Z" style="fill:#263238"></path><polygon points="222.26 300.86 188.3 329.75 213.27 376.41 210.98 376.77 186.6 331.2 175.01 341.06 175.01 382.46 251.85 370.34 251.85 331.91 250.81 329.74 222.26 300.86" style="fill:#263238"></polygon><path d="M123.15,194.87,173.92,219V134.79l-50.77-9.28Zm21.5-60.56c8.37-.32,15.59,10.9,16.13,25.06S155,185.26,146.6,185.58s-15.59-10.9-16.13-25.06S136.28,134.63,144.65,134.31Z" style="fill:#263238"></path><path d="M229.88,203a4.43,4.43,0,0,0-7.19.82l-32.16,58.72,61.32,62V229.92L250,225.63Z" style="fill:#263238"></path><polygon points="252.94 334.21 252.94 370.27 271.69 373.5 252.94 334.21" style="fill:#263238"></polygon><path d="M288.48,191.45a11.19,11.19,0,0,0-11.19,11.19c0,6.18,11.19,17.86,11.19,17.86s11.19-11.68,11.19-17.86A11.19,11.19,0,0,0,288.48,191.45Zm0,15.19a4.72,4.72,0,1,1,4.72-4.72A4.72,4.72,0,0,1,288.48,206.64Z" style="fill:#fff"></path></g></svg>