<svg width="44" height="44" viewBox="0 0 44 44" fill="none" xmlns="http://www.w3.org/2000/svg">
<rect width="44" height="44" rx="4" fill="#670029"/>
<path d="M26.6978 31.9958H15.0978C14.6882 31.9975 14.2824 31.917 13.9045 31.7589C13.5266 31.6009 13.1843 31.3686 12.8978 31.0758C12.6088 30.7855 12.3804 30.4406 12.2259 30.0612C12.0713 29.6818 11.9938 29.2754 11.9978 28.8658V17.2758C11.9927 16.8681 12.0707 16.4636 12.2272 16.0871C12.3837 15.7105 12.6152 15.3698 12.9078 15.0858C13.1924 14.7972 13.5326 14.5693 13.9078 14.4158C14.2876 14.2558 14.6957 14.1742 15.1078 14.1758H19.5478C19.7467 14.1758 19.9375 14.2548 20.0781 14.3955C20.2188 14.5361 20.2978 14.7269 20.2978 14.9258C20.2978 15.1247 20.2188 15.3155 20.0781 15.4561C19.9375 15.5968 19.7467 15.6758 19.5478 15.6758H15.1078C14.8927 15.6817 14.68 15.7222 14.4778 15.7958C14.1831 15.9202 13.9319 16.129 13.7557 16.3959C13.5795 16.6629 13.4863 16.976 13.4878 17.2958V28.8858C13.4853 29.1007 13.5256 29.3139 13.6062 29.513C13.6869 29.7122 13.8064 29.8933 13.9578 30.0458C14.1091 30.196 14.2886 30.3148 14.4859 30.3954C14.6833 30.4761 14.8946 30.517 15.1078 30.5158H26.7078C26.9208 30.5158 27.1308 30.4758 27.3278 30.3958C27.5233 30.316 27.7003 30.1969 27.8478 30.0458C28 29.8992 28.1193 29.722 28.1978 29.5258C28.2859 29.3276 28.3302 29.1127 28.3278 28.8958V24.4558C28.3278 24.2569 28.4068 24.0661 28.5475 23.9255C28.6881 23.7848 28.8789 23.7058 29.0778 23.7058C29.2767 23.7058 29.4675 23.7848 29.6081 23.9255C29.7488 24.0661 29.8278 24.2569 29.8278 24.4558V28.9258C29.8295 29.3354 29.7489 29.7412 29.5909 30.1191C29.4329 30.497 29.2006 30.8393 28.9078 31.1258C28.6213 31.4147 28.2818 31.6456 27.9078 31.8058C27.5208 31.9458 27.1098 32.0108 26.6978 31.9958Z" fill="#F2F7F2"/>
<path d="M31.808 15.4558C31.7072 15.1977 31.55 14.9653 31.3479 14.7758L29.1979 12.6258C29.0084 12.4237 28.776 12.2665 28.5179 12.1658C28.131 12.0027 27.7042 11.9594 27.2924 12.0414C26.8806 12.1234 26.5029 12.327 26.2079 12.6258L24.4979 14.3358V14.3858L16.7579 22.1158C16.3681 22.5098 16.149 23.0415 16.1479 23.5958V25.7658C16.1506 26.3246 16.3737 26.8597 16.7689 27.2549C17.164 27.65 17.6992 27.8731 18.2579 27.8758H20.4279C20.7035 27.8761 20.9763 27.8215 21.2305 27.715C21.4846 27.6085 21.7149 27.4524 21.9079 27.2558L29.648 19.5158L31.3679 17.7958C31.5699 17.6058 31.7279 17.3738 31.8279 17.1158C31.9424 16.8593 32.0015 16.5816 32.0015 16.3008C32.0015 16.0199 31.9424 15.7422 31.8279 15.4858L31.808 15.4558ZM30.4279 16.5058C30.3966 16.5819 30.3488 16.6502 30.2879 16.7058L29.068 17.9258L26.068 14.9258L27.2979 13.6958C27.4161 13.5815 27.5736 13.517 27.738 13.5158C27.8172 13.5168 27.8954 13.5338 27.9679 13.5658C28.044 13.5978 28.1129 13.6458 28.1679 13.7058L30.3279 15.8558C30.3826 15.9144 30.4266 15.9821 30.4579 16.0558C30.473 16.1317 30.473 16.2098 30.4579 16.2858C30.4617 16.3603 30.4515 16.4349 30.4279 16.5058Z" fill="#F2F7F2"/>
</svg>
