<svg width="16" height="16" viewBox="0 0 16 16" fill="none" xmlns="http://www.w3.org/2000/svg">
<path d="M9.14371 12.743L5.39371 2.74304C5.34458 2.61199 5.25662 2.49905 5.14158 2.41932C5.02655 2.33959 4.88992 2.29688 4.74996 2.29688C4.61 2.29687 4.47337 2.33959 4.35834 2.41932C4.2433 2.49905 4.15534 2.61199 4.10621 2.74304L0.356211 12.743C0.294188 12.9133 0.301914 13.1012 0.377707 13.2658C0.453501 13.4305 0.591231 13.5585 0.760937 13.6221C0.930644 13.6857 1.1186 13.6797 1.28392 13.6055C1.44923 13.5312 1.57854 13.3947 1.64371 13.2255L2.77371 10.2124C2.77816 10.2005 2.78614 10.1902 2.79658 10.183C2.80702 10.1757 2.81943 10.1718 2.83215 10.1718H6.66777C6.68049 10.1718 6.6929 10.1757 6.70334 10.183C6.71378 10.1902 6.72176 10.2005 6.72621 10.2124L7.85621 13.2255C7.92138 13.3947 8.05069 13.5312 8.21601 13.6055C8.38132 13.6797 8.56928 13.6857 8.73898 13.6221C8.90869 13.5585 9.04642 13.4305 9.12221 13.2658C9.19801 13.1012 9.20573 12.9133 9.14371 12.743ZM3.33621 8.71179L4.69152 5.09773C4.69602 5.08587 4.70402 5.07566 4.71446 5.06846C4.7249 5.06125 4.73728 5.05739 4.74996 5.05739C4.76264 5.05739 4.77503 5.06125 4.78546 5.06846C4.7959 5.07566 4.8039 5.08587 4.8084 5.09773L6.16371 8.71242C6.16724 8.72186 6.16843 8.73202 6.16718 8.74203C6.16594 8.75203 6.16229 8.76159 6.15654 8.76988C6.1508 8.77817 6.14314 8.78494 6.13421 8.78963C6.12529 8.79432 6.11536 8.79677 6.10527 8.79679H3.39465C3.38456 8.79677 3.37464 8.79432 3.36571 8.78963C3.35678 8.78494 3.34912 8.77817 3.34338 8.76988C3.33764 8.76159 3.33399 8.75203 3.33274 8.74203C3.33149 8.73202 3.33268 8.72186 3.33621 8.71242V8.71179ZM12.524 5.29679C11.2203 5.28742 10.0528 6.04273 9.55527 7.21554C9.484 7.38337 9.48231 7.57265 9.55058 7.74172C9.61886 7.9108 9.7515 8.04583 9.91934 8.1171C10.0872 8.18838 10.2764 8.19007 10.4455 8.12179C10.6146 8.05352 10.7496 7.92087 10.8209 7.75304C11.0984 7.10023 11.7512 6.67679 12.4871 6.67179C13.4971 6.66492 14.3125 7.49992 14.3125 8.51085C14.3125 8.52302 14.3077 8.53471 14.2993 8.54346C14.2908 8.55221 14.2793 8.55732 14.2671 8.55773C13.5821 8.57679 12.7696 8.62242 12.0446 8.70773C10.3337 8.90898 9.31246 9.84179 9.31246 11.203C9.31246 11.9277 9.58621 12.578 10.0834 13.0368C10.55 13.4665 11.1875 13.703 11.875 13.703C12.8437 13.703 13.6778 13.453 14.3106 12.9774H14.3125C14.3121 13.0677 14.3295 13.1572 14.3637 13.2407C14.3978 13.3243 14.4482 13.4003 14.5117 13.4644C14.5753 13.5285 14.6509 13.5795 14.7341 13.6144C14.8174 13.6493 14.9067 13.6675 14.997 13.6679C15.0873 13.6683 15.1768 13.6509 15.2603 13.6167C15.3439 13.5825 15.4199 13.5322 15.484 13.4686C15.5481 13.4051 15.5991 13.3295 15.634 13.2462C15.6689 13.163 15.6871 13.0736 15.6875 12.9834V8.5146C15.6875 6.75898 14.2812 5.3096 12.524 5.29679ZM11.875 12.328C11.3271 12.328 10.6875 12.0334 10.6875 11.203C10.6875 10.8696 10.8071 10.6362 11.0759 10.4459C11.3375 10.2605 11.7384 10.1284 12.2053 10.0734C12.8653 9.99554 13.6059 9.95273 14.2409 9.93367C14.2494 9.93366 14.2578 9.93537 14.2656 9.9387C14.2734 9.94204 14.2804 9.94692 14.2862 9.95306C14.2921 9.9592 14.2966 9.96647 14.2996 9.97441C14.3025 9.98236 14.3038 9.99082 14.3034 9.99929C14.2187 11.5655 13.4206 12.328 11.875 12.328Z" fill="#B22222"/>
</svg>
