<svg width="19" height="18" viewBox="0 0 19 18" fill="none" xmlns="http://www.w3.org/2000/svg">
<path d="M4.74984 15.4063V16.6346C4.74984 16.8777 4.84641 17.1109 5.01832 17.2828C5.19023 17.4547 5.42339 17.5513 5.6665 17.5513H12.9998C13.243 17.5513 13.4761 17.4547 13.648 17.2828C13.8199 17.1109 13.9165 16.8777 13.9165 16.6346V15.4063C15.31 14.6018 16.4671 13.4446 17.2717 12.0512C18.0762 10.6577 18.4998 9.077 18.4998 7.46796C18.4998 7.22484 18.4033 6.99168 18.2314 6.81977C18.0594 6.64787 17.8263 6.55129 17.5832 6.55129C17.5664 5.99004 17.4059 5.44249 17.117 4.96101C16.8281 4.47952 16.4205 4.08022 15.9332 3.80129C15.8163 3.00282 15.4156 2.27322 14.8044 1.74624C14.1933 1.21927 13.4126 0.930231 12.6057 0.932122C12.2962 0.931589 11.988 0.971653 11.689 1.05129C11.058 0.448906 10.2193 0.112793 9.34692 0.112793C8.47459 0.112793 7.63579 0.448906 7.00484 1.05129C6.70581 0.971653 6.39762 0.931589 6.08817 0.932122C5.27805 0.9258 4.493 1.21283 3.87801 1.74021C3.26302 2.26758 2.85963 2.99968 2.74234 3.80129C2.25331 4.07908 1.84388 4.47788 1.55334 4.95944C1.2628 5.441 1.1009 5.98915 1.08317 6.55129C0.840055 6.55129 0.606898 6.64787 0.434989 6.81977C0.263081 6.99168 0.166504 7.22484 0.166504 7.46796C0.166545 9.077 0.590122 10.6577 1.39466 12.0512C2.1992 13.4446 3.35636 14.6018 4.74984 15.4063ZM3.934 5.32296L4.69484 5.08462L4.54817 4.25962C4.55056 4.0622 4.59182 3.86718 4.66959 3.6857C4.74736 3.50422 4.86012 3.33984 5.00142 3.20194C5.14272 3.06404 5.3098 2.95533 5.49312 2.88201C5.67644 2.80869 5.87241 2.7722 6.06984 2.77462C6.33457 2.77311 6.59569 2.83603 6.83067 2.95796L7.57317 3.37046L8.0315 2.66462C8.17484 2.45098 8.36856 2.27591 8.59557 2.15485C8.82258 2.03378 9.0759 1.97046 9.33317 1.97046C9.59044 1.97046 9.84376 2.03378 10.0708 2.15485C10.2978 2.27591 10.4915 2.45098 10.6348 2.66462L11.0932 3.37046L11.8357 2.95796C12.0707 2.83603 12.3318 2.77311 12.5965 2.77462C12.993 2.76963 13.3756 2.92054 13.6619 3.19486C13.9482 3.46917 14.1154 3.84495 14.1273 4.24129L13.9807 5.02046L14.7323 5.27712C15.0096 5.3639 15.2546 5.53157 15.4359 5.7586C15.6172 5.98564 15.7266 6.26168 15.7498 6.55129H2.9165C2.93979 6.26168 3.0491 5.98564 3.2304 5.7586C3.4117 5.53157 3.65672 5.3639 3.934 5.27712V5.32296ZM16.6115 8.38462C16.4586 9.58474 16.0111 10.7284 15.309 11.7136C14.6068 12.6988 13.6718 13.4951 12.5873 14.0313C12.4348 14.1082 12.3067 14.2261 12.2176 14.3719C12.1286 14.5177 12.082 14.6855 12.0832 14.8563V15.718H6.58317V14.8563C6.58436 14.6855 6.53778 14.5177 6.4487 14.3719C6.35962 14.2261 6.23157 14.1082 6.079 14.0313C4.99451 13.4951 4.05952 12.6988 3.35738 11.7136C2.65525 10.7284 2.20777 9.58474 2.05484 8.38462H16.6115Z" fill="#92000A"/>
</svg>
