<svg width="67" height="67" viewBox="0 0 67 67" fill="none" xmlns="http://www.w3.org/2000/svg">
<rect width="67" height="67" rx="10" fill="#670029"/>
<g clip-path="url(#clip0_942_839)">
<path d="M30.2502 47.6667C30.2502 48.396 30.5399 49.0955 31.0556 49.6112C31.5713 50.127 32.2708 50.4167 33.0002 50.4167C33.7295 50.4167 34.429 50.127 34.9447 49.6112C35.4604 49.0955 35.7502 48.396 35.7502 47.6667V35.75H47.6668C48.3962 35.75 49.0956 35.4603 49.6114 34.9446C50.1271 34.4289 50.4168 33.7294 50.4168 33C50.4168 32.2707 50.1271 31.5712 49.6114 31.0555C49.0956 30.5398 48.3962 30.25 47.6668 30.25H35.7502V18.3334C35.7502 17.604 35.4604 16.9046 34.9447 16.3888C34.429 15.8731 33.7295 15.5834 33.0002 15.5834C32.2708 15.5834 31.5713 15.8731 31.0556 16.3888C30.5399 16.9046 30.2502 17.604 30.2502 18.3334V30.25H18.3335C17.6042 30.25 16.9047 30.5398 16.389 31.0555C15.8732 31.5712 15.5835 32.2707 15.5835 33C15.5835 33.7294 15.8732 34.4289 16.389 34.9446C16.9047 35.4603 17.6042 35.75 18.3335 35.75H30.2502V47.6667Z" fill="#F2F7F2"/>
</g>
<defs>
<clipPath id="clip0_942_839">
<rect width="44" height="44" fill="white" transform="translate(11 11)"/>
</clipPath>
</defs>
</svg>
