<svg width="67" height="67" viewBox="0 0 67 67" fill="none" xmlns="http://www.w3.org/2000/svg">
<rect width="67" height="67" rx="10" fill="#F2F7F2"/>
<path d="M30.6667 49.0833C30.6667 49.8127 30.9564 50.5121 31.4721 51.0279C31.9878 51.5436 32.6873 51.8333 33.4167 51.8333C34.146 51.8333 34.8455 51.5436 35.3612 51.0279C35.8769 50.5121 36.1667 49.8127 36.1667 49.0833V37.1667H48.0833C48.8127 37.1667 49.5121 36.8769 50.0279 36.3612C50.5436 35.8455 50.8333 35.146 50.8333 34.4167C50.8333 33.6873 50.5436 32.9878 50.0279 32.4721C49.5121 31.9564 48.8127 31.6667 48.0833 31.6667H36.1667V19.75C36.1667 19.0207 35.8769 18.3212 35.3612 17.8055C34.8455 17.2897 34.146 17 33.4167 17C32.6873 17 31.9878 17.2897 31.4721 17.8055C30.9564 18.3212 30.6667 19.0207 30.6667 19.75V31.6667H18.75C18.0207 31.6667 17.3212 31.9564 16.8055 32.4721C16.2897 32.9878 16 33.6873 16 34.4167C16 35.146 16.2897 35.8455 16.8055 36.3612C17.3212 36.8769 18.0207 37.1667 18.75 37.1667H30.6667V49.0833Z" fill="#670029"/>
</svg>
