<svg width="25" height="17" viewBox="0 0 25 17" fill="none" xmlns="http://www.w3.org/2000/svg">
<path d="M16.6064 0.522119L24.3959 7.24059C24.7827 7.57462 25 8.0274 25 8.49949C25 8.97158 24.7827 9.42437 24.3959 9.75839L16.6078 16.4781C16.2203 16.8123 15.6947 17 15.1468 17C14.5988 17 14.0733 16.8123 13.6858 16.4781C13.2983 16.1439 13.0806 15.6906 13.0806 15.218C13.0806 14.7453 13.2983 14.2921 13.6858 13.9579L17.9489 10.281H2.06547C1.51767 10.281 0.992313 10.0933 0.604962 9.75918C0.217611 9.42509 0 8.97197 0 8.49949C0 8.02702 0.217611 7.5739 0.604962 7.23981C0.992313 6.90572 1.51767 6.71803 2.06547 6.71803H17.9489L13.6872 3.0411C13.2999 2.70691 13.0824 2.2537 13.0825 1.78119C13.0826 1.30868 13.3004 0.855562 13.6879 0.521525C14.0753 0.187487 14.6008 -0.00011131 15.1486 4.95493e-08C15.6965 0.000111409 16.2218 0.187923 16.6091 0.522119H16.6064Z" fill="#F2F7F2"/>
</svg>
