<svg width="20" height="20" viewBox="0 0 20 20" fill="none" xmlns="http://www.w3.org/2000/svg">
<path d="M0 7C0 5.114 -5.96046e-08 4.172 0.586 3.586C1.172 3 2.114 3 4 3H16C17.886 3 18.828 3 19.414 3.586C20 4.172 20 5.114 20 7C20 7.471 20 7.707 19.854 7.854C19.707 8 19.47 8 19 8H1C0.529 8 0.293 8 0.146 7.854C-8.9407e-08 7.707 0 7.47 0 7ZM0 16C0 17.886 -5.96046e-08 18.828 0.586 19.414C1.172 20 2.114 20 4 20H16C17.886 20 18.828 20 19.414 19.414C20 18.828 20 17.886 20 16V11C20 10.529 20 10.293 19.854 10.146C19.707 10 19.47 10 19 10H1C0.529 10 0.293 10 0.146 10.146C-8.9407e-08 10.293 0 10.53 0 11V16Z" fill="#F2F7F2"/>
<path d="M5 1V4M15 1V4" stroke="#F2F7F2" stroke-width="2" stroke-linecap="round"/>
</svg>
