<svg width="28" height="27" viewBox="0 0 28 27" fill="none" xmlns="http://www.w3.org/2000/svg">
<path d="M27.125 5.99991C27.125 5.00535 26.7299 4.05153 26.0266 3.34826C25.3234 2.645 24.3696 2.24991 23.375 2.24991H22.4375V1.33878C22.4375 0.834289 22.0496 0.401282 21.5451 0.376086C21.4184 0.369979 21.2917 0.389671 21.1728 0.433969C21.0538 0.478266 20.9451 0.546248 20.8533 0.633794C20.7614 0.72134 20.6882 0.826627 20.6383 0.943277C20.5883 1.05993 20.5625 1.18551 20.5625 1.31241V2.24991H7.4375V1.33878C7.4375 0.834289 7.04961 0.401282 6.54512 0.376086C6.41836 0.369979 6.29168 0.389671 6.17276 0.433969C6.05383 0.478266 5.94514 0.546248 5.85327 0.633794C5.76139 0.72134 5.68825 0.826627 5.63827 0.943277C5.58829 1.05993 5.56251 1.18551 5.5625 1.31241V2.24991H4.625C3.63044 2.24991 2.67661 2.645 1.97335 3.34826C1.27009 4.05153 0.875 5.00535 0.875 5.99991V6.70304C0.875 6.7652 0.899693 6.82481 0.943647 6.86877C0.987601 6.91272 1.04721 6.93741 1.10938 6.93741H26.8906C26.9528 6.93741 27.0124 6.91272 27.0564 6.86877C27.1003 6.82481 27.125 6.7652 27.125 6.70304V5.99991ZM0.875 22.8749C0.875 23.8695 1.27009 24.8233 1.97335 25.5266C2.67661 26.2298 3.63044 26.6249 4.625 26.6249H23.375C24.3696 26.6249 25.3234 26.2298 26.0266 25.5266C26.7299 24.8233 27.125 23.8695 27.125 22.8749V8.9882C27.125 8.94158 27.1065 8.89686 27.0735 8.8639C27.0405 8.83093 26.9958 8.81241 26.9492 8.81241H1.05078C1.00416 8.81241 0.959451 8.83093 0.926485 8.8639C0.89352 8.89686 0.875 8.94158 0.875 8.9882V22.8749ZM21.0312 10.6874C21.3094 10.6874 21.5813 10.7699 21.8125 10.9244C22.0438 11.0789 22.224 11.2986 22.3305 11.5555C22.4369 11.8125 22.4647 12.0952 22.4105 12.368C22.3562 12.6408 22.2223 12.8914 22.0256 13.088C21.829 13.2847 21.5784 13.4186 21.3056 13.4729C21.0328 13.5272 20.7501 13.4993 20.4931 13.3929C20.2361 13.2864 20.0165 13.1062 19.862 12.8749C19.7075 12.6437 19.625 12.3718 19.625 12.0937C19.625 11.7207 19.7732 11.363 20.0369 11.0993C20.3006 10.8356 20.6583 10.6874 21.0312 10.6874ZM21.0312 15.3749C21.3094 15.3749 21.5813 15.4574 21.8125 15.6119C22.0438 15.7664 22.224 15.9861 22.3305 16.243C22.4369 16.5 22.4647 16.7827 22.4105 17.0555C22.3562 17.3283 22.2223 17.5789 22.0256 17.7755C21.829 17.9722 21.5784 18.1061 21.3056 18.1604C21.0328 18.2147 20.7501 18.1868 20.4931 18.0804C20.2361 17.9739 20.0165 17.7937 19.862 17.5624C19.7075 17.3312 19.625 17.0593 19.625 16.7812C19.625 16.4082 19.7732 16.0505 20.0369 15.7868C20.3006 15.5231 20.6583 15.3749 21.0312 15.3749ZM16.3438 10.6874C16.6219 10.6874 16.8938 10.7699 17.125 10.9244C17.3563 11.0789 17.5365 11.2986 17.643 11.5555C17.7494 11.8125 17.7772 12.0952 17.723 12.368C17.6687 12.6408 17.5348 12.8914 17.3381 13.088C17.1415 13.2847 16.8909 13.4186 16.6181 13.4729C16.3453 13.5272 16.0626 13.4993 15.8056 13.3929C15.5486 13.2864 15.329 13.1062 15.1745 12.8749C15.02 12.6437 14.9375 12.3718 14.9375 12.0937C14.9375 11.7207 15.0857 11.363 15.3494 11.0993C15.6131 10.8356 15.9708 10.6874 16.3438 10.6874ZM16.3438 15.3749C16.6219 15.3749 16.8938 15.4574 17.125 15.6119C17.3563 15.7664 17.5365 15.9861 17.643 16.243C17.7494 16.5 17.7772 16.7827 17.723 17.0555C17.6687 17.3283 17.5348 17.5789 17.3381 17.7755C17.1415 17.9722 16.8909 18.1061 16.6181 18.1604C16.3453 18.2147 16.0626 18.1868 15.8056 18.0804C15.5486 17.9739 15.329 17.7937 15.1745 17.5624C15.02 17.3312 14.9375 17.0593 14.9375 16.7812C14.9375 16.4082 15.0857 16.0505 15.3494 15.7868C15.6131 15.5231 15.9708 15.3749 16.3438 15.3749ZM16.3438 20.0624C16.6219 20.0624 16.8938 20.1449 17.125 20.2994C17.3563 20.4539 17.5365 20.6736 17.643 20.9305C17.7494 21.1875 17.7772 21.4702 17.723 21.743C17.6687 22.0158 17.5348 22.2664 17.3381 22.463C17.1415 22.6597 16.8909 22.7936 16.6181 22.8479C16.3453 22.9022 16.0626 22.8743 15.8056 22.7679C15.5486 22.6614 15.329 22.4812 15.1745 22.2499C15.02 22.0187 14.9375 21.7468 14.9375 21.4687C14.9375 21.0957 15.0857 20.738 15.3494 20.4743C15.6131 20.2106 15.9708 20.0624 16.3438 20.0624ZM11.6562 15.3749C11.9344 15.3749 12.2063 15.4574 12.4375 15.6119C12.6688 15.7664 12.849 15.9861 12.9555 16.243C13.0619 16.5 13.0897 16.7827 13.0355 17.0555C12.9812 17.3283 12.8473 17.5789 12.6506 17.7755C12.454 17.9722 12.2034 18.1061 11.9306 18.1604C11.6578 18.2147 11.3751 18.1868 11.1181 18.0804C10.8611 17.9739 10.6415 17.7937 10.487 17.5624C10.3325 17.3312 10.25 17.0593 10.25 16.7812C10.25 16.4082 10.3982 16.0505 10.6619 15.7868C10.9256 15.5231 11.2833 15.3749 11.6562 15.3749ZM11.6562 20.0624C11.9344 20.0624 12.2063 20.1449 12.4375 20.2994C12.6688 20.4539 12.849 20.6736 12.9555 20.9305C13.0619 21.1875 13.0897 21.4702 13.0355 21.743C12.9812 22.0158 12.8473 22.2664 12.6506 22.463C12.454 22.6597 12.2034 22.7936 11.9306 22.8479C11.6578 22.9022 11.3751 22.8743 11.1181 22.7679C10.8611 22.6614 10.6415 22.4812 10.487 22.2499C10.3325 22.0187 10.25 21.7468 10.25 21.4687C10.25 21.0957 10.3982 20.738 10.6619 20.4743C10.9256 20.2106 11.2833 20.0624 11.6562 20.0624ZM6.96875 15.3749C7.24688 15.3749 7.51876 15.4574 7.75002 15.6119C7.98128 15.7664 8.16152 15.9861 8.26796 16.243C8.37439 16.5 8.40224 16.7827 8.34798 17.0555C8.29372 17.3283 8.15979 17.5789 7.96312 17.7755C7.76645 17.9722 7.51588 18.1061 7.2431 18.1604C6.97031 18.2147 6.68756 18.1868 6.4306 18.0804C6.17364 17.9739 5.95402 17.7937 5.7995 17.5624C5.64498 17.3312 5.5625 17.0593 5.5625 16.7812C5.5625 16.4082 5.71066 16.0505 5.97438 15.7868C6.2381 15.5231 6.59579 15.3749 6.96875 15.3749ZM6.96875 20.0624C7.24688 20.0624 7.51876 20.1449 7.75002 20.2994C7.98128 20.4539 8.16152 20.6736 8.26796 20.9305C8.37439 21.1875 8.40224 21.4702 8.34798 21.743C8.29372 22.0158 8.15979 22.2664 7.96312 22.463C7.76645 22.6597 7.51588 22.7936 7.2431 22.8479C6.97031 22.9022 6.68756 22.8743 6.4306 22.7679C6.17364 22.6614 5.95402 22.4812 5.7995 22.2499C5.64498 22.0187 5.5625 21.7468 5.5625 21.4687C5.5625 21.0957 5.71066 20.738 5.97438 20.4743C6.2381 20.2106 6.59579 20.0624 6.96875 20.0624Z" fill="#B22222"/>
</svg>
