<svg width="30" height="28" viewBox="0 0 30 28" fill="none" xmlns="http://www.w3.org/2000/svg">
<path d="M28.0202 8.75399L7.41624 6.47399L6.16024 1.71499C6.11658 1.55538 6.02189 1.41443 5.89062 1.31368C5.75935 1.21293 5.59872 1.1579 5.43324 1.15699H2.34024C2.22845 1.00651 2.08334 0.883962 1.91626 0.79895C1.74919 0.713937 1.56469 0.668772 1.37724 0.666992C1.04798 0.666992 0.732196 0.797792 0.499369 1.03062C0.266543 1.26345 0.135742 1.57923 0.135742 1.90849C0.135742 2.23776 0.266543 2.55354 0.499369 2.78637C0.732196 3.01919 1.04798 3.14999 1.37724 3.14999C1.77724 3.14999 2.11524 2.94999 2.34224 2.65799H4.85424L10.0842 22.458C9.51374 23.0653 9.19556 23.8668 9.19424 24.7C9.19385 25.1325 9.27872 25.5608 9.44401 25.9604C9.60929 26.36 9.85175 26.7232 10.1575 27.029C10.4633 27.3349 10.8263 27.5774 11.2259 27.7428C11.6255 27.9083 12.0538 27.9933 12.4862 27.993C13.36 27.9933 14.1982 27.6465 14.8165 27.029C15.4347 26.4115 15.7824 25.5738 15.7832 24.7C15.7815 24.4495 15.7503 24.2001 15.6902 23.957H21.2232C21.1641 24.2003 21.1332 24.4496 21.1312 24.7C21.1312 26.52 22.6072 27.993 24.4272 27.993C26.2472 27.993 27.7202 26.52 27.7202 24.7C27.7205 23.826 27.3736 22.9877 26.7559 22.3694C26.1382 21.7512 25.3002 21.4035 24.4262 21.403C23.4762 21.403 22.6262 21.813 22.0242 22.456H14.8882C14.582 22.1245 14.2106 21.8598 13.7972 21.6786C13.3839 21.4974 12.9376 21.4036 12.4862 21.403C12.1062 21.403 11.7482 21.481 11.4092 21.599L11.2272 20.913H25.8102C26.3707 20.9015 26.911 20.7021 27.3444 20.3466C27.7779 19.9911 28.0793 19.5003 28.2002 18.953L29.7752 11.155C29.8018 11.0186 29.8152 10.88 29.8152 10.741C29.816 10.246 29.6327 9.76838 29.301 9.40097C28.9692 9.03357 28.5128 8.80362 28.0202 8.75399ZM24.4282 24.994C24.3499 24.9937 24.2748 24.9626 24.2192 24.9074C24.1636 24.8522 24.132 24.7773 24.1312 24.699C24.1342 24.533 24.2662 24.401 24.4292 24.401C24.5922 24.401 24.7242 24.533 24.7262 24.698C24.7252 24.7762 24.6935 24.8508 24.6379 24.9058C24.5824 24.9608 24.5074 24.9917 24.4292 24.992L24.4282 24.994ZM26.2082 17.499L27.1562 16.549L26.8382 18.129L26.2082 17.499ZM11.7552 8.46199L12.7902 9.49999L11.5002 10.79L10.2072 9.49999L11.2942 8.41199L11.7552 8.46199ZM16.2532 8.95999L16.7912 9.49999L15.5012 10.79L14.2082 9.49999L14.8962 8.80999L16.2532 8.95999ZM8.63024 11.076L9.50024 10.208L10.7902 11.5L9.50024 12.79L8.93524 12.227L8.63124 11.075L8.63024 11.076ZM8.33524 9.95599L8.00724 8.71599L8.79224 9.50099L8.33524 9.95599ZM20.7902 13.5L19.5002 14.79L18.2072 13.5L19.4992 12.207L20.7902 13.5ZM20.2072 11.5L21.4992 10.208L22.7892 11.5L21.4992 12.792L20.2072 11.5ZM17.5002 12.79L16.2072 11.5L17.4992 10.207L18.7892 11.499L17.5002 12.79ZM16.7902 13.5L15.5002 14.79L14.2082 13.5L15.5002 12.207L16.7902 13.5ZM13.5002 12.79L12.2072 11.5L13.4992 10.207L14.7892 11.499L13.5002 12.79ZM12.7902 13.5L11.5002 14.79L10.2072 13.5L11.4992 12.207L12.7902 13.5ZM9.50024 14.207L10.7902 15.499L10.0062 16.282L9.46624 14.238L9.49924 14.205L9.50024 14.207ZM10.3022 17.404L11.4992 16.207L12.7892 17.499L11.4992 18.789L10.3692 17.659L10.3022 17.404ZM12.2082 15.499L13.4982 14.206L14.7912 15.498L13.5012 16.788L12.2092 15.498L12.2082 15.499ZM15.5002 16.206L16.7922 17.498L15.5002 18.788L14.2082 17.498L15.5002 16.206ZM16.2082 15.498L17.5002 14.205L18.7902 15.497L17.5002 16.787L16.2082 15.498ZM19.4982 16.205L20.7912 17.497L19.5012 18.787L18.2092 17.495L19.4982 16.205ZM20.2082 15.497L21.4982 14.204L22.7912 15.496L21.5012 16.786L20.2082 15.497ZM22.2082 13.497L23.4982 12.204L24.7912 13.496L23.5012 14.786L22.2082 13.497ZM24.2082 11.497L25.4982 10.204L26.7902 11.5L25.5002 12.792L24.2072 11.499L24.2082 11.497ZM23.4982 10.789L22.3432 9.63299L24.4252 9.86299L23.4982 10.789ZM20.7922 9.49999L19.5022 10.792L18.2092 9.49999L18.4992 9.20999L20.7522 9.45999L20.7922 9.49999ZM13.5022 8.78999L13.3502 8.63999L13.6232 8.66999L13.5032 8.78999H13.5022ZM9.50224 8.79199L8.85224 8.14199L10.0222 8.27199L9.50224 8.79199ZM13.5022 18.207L14.7072 19.412H12.2972L13.5022 18.207ZM17.5022 18.207L18.7072 19.413H16.2952L17.5022 18.207ZM21.5022 18.207L22.7092 19.414H20.2952L21.5022 18.207ZM22.2092 17.499L23.5012 16.206L24.7912 17.498L23.5012 18.788L22.2092 17.499ZM24.2092 15.499L25.5012 14.207L26.7912 15.497L25.5012 16.79L24.2082 15.5L24.2092 15.499ZM27.5012 14.789L26.2092 13.499L27.4992 12.207L27.9442 12.651L27.5142 14.775L27.5002 14.79L27.5012 14.789ZM28.0012 10.289L27.5012 10.789L26.8412 10.132L27.8582 10.244C27.9122 10.252 27.9582 10.27 28.0022 10.288L28.0012 10.289ZM12.4882 24.993C12.4126 24.9886 12.3415 24.9554 12.2895 24.9003C12.2374 24.8452 12.2085 24.7723 12.2085 24.6965C12.2085 24.6207 12.2374 24.5478 12.2895 24.4927C12.3415 24.4375 12.4126 24.4044 12.4882 24.4C12.5636 24.4044 12.6345 24.4374 12.6863 24.4924C12.7382 24.5473 12.767 24.62 12.767 24.6955C12.767 24.771 12.7382 24.8437 12.6863 24.8986C12.6345 24.9536 12.5636 24.9866 12.4882 24.991V24.993ZM25.8112 19.413H24.2942L25.5012 18.206L26.4312 19.136C26.2442 19.306 26.0082 19.426 25.8112 19.413Z" fill="#F8F8F8"/>
</svg>
