<svg width="33" height="30" viewBox="0 0 33 30" fill="none" xmlns="http://www.w3.org/2000/svg">
<path d="M5.625 18.553H6.75C6.74989 18.3524 6.68597 18.1562 6.56608 17.9885C6.44619 17.8207 6.27553 17.6886 6.075 17.6084L5.625 18.553ZM26.625 18.553L26.175 17.6084C25.9745 17.6886 25.8038 17.8207 25.6839 17.9885C25.564 18.1562 25.5001 18.3524 25.5 18.553H26.625ZM21.75 8.125C21.75 8.3985 21.8685 8.66081 22.0795 8.8542C22.2905 9.0476 22.5766 9.15625 22.875 9.15625C23.1734 9.15625 23.4595 9.0476 23.6705 8.8542C23.8815 8.66081 24 8.3985 24 8.125H21.75ZM8.25 8.125C8.25 8.3985 8.36853 8.66081 8.5795 8.8542C8.79048 9.0476 9.07663 9.15625 9.375 9.15625C9.67337 9.15625 9.95952 9.0476 10.1705 8.8542C10.3815 8.66081 10.5 8.3985 10.5 8.125H8.25ZM8.625 4.34375C6.33751 4.34375 4.14371 5.17673 2.5262 6.65944C0.908703 8.14215 1.91716e-08 10.1531 1.91716e-08 12.25H2.25C2.25 10.7001 2.92165 9.21376 4.11719 8.11784C5.31274 7.02193 6.93424 6.40625 8.625 6.40625V4.34375ZM23.625 6.40625C25.3158 6.40625 26.9373 7.02193 28.1328 8.11784C29.3283 9.21376 30 10.7001 30 12.25H32.25C32.25 10.1531 31.3413 8.14215 29.7238 6.65944C28.1063 5.17673 25.9125 4.34375 23.625 4.34375V6.40625ZM20.625 27.7188H11.625V29.7812H20.625V27.7188ZM11.625 27.7188C10.179 27.7188 9.207 27.716 8.4825 27.6266C7.791 27.5414 7.494 27.3942 7.299 27.2141L5.709 28.6744C6.3915 29.3 7.242 29.5544 8.184 29.6713C9.093 29.784 10.242 29.7812 11.625 29.7812V27.7188ZM4.5 23.25C4.5 24.5177 4.497 25.571 4.62 26.4043C4.746 27.2678 5.025 28.0474 5.7075 28.673L7.299 27.2155C7.104 27.0368 6.9435 26.7645 6.849 26.1292C6.753 25.4665 6.75 24.5755 6.75 23.25H4.5ZM25.5 23.25C25.5 24.5755 25.497 25.4665 25.3995 26.1306C25.3065 26.7645 25.146 27.0368 24.9495 27.2155L26.5425 28.673C27.225 28.0474 27.5025 27.2678 27.63 26.4043C27.753 25.571 27.75 24.5177 27.75 23.25H25.5ZM20.625 29.7812C22.008 29.7812 23.157 29.784 24.066 29.6713C25.008 29.5558 25.86 29.3 26.5425 28.673L24.951 27.2155C24.756 27.3943 24.459 27.5414 23.766 27.628C23.043 27.716 22.071 27.7188 20.625 27.7188V29.7812ZM8.625 6.40625C8.946 6.40625 9.2595 6.42825 9.567 6.4695L9.8955 4.429C9.47485 4.37212 9.05021 4.34363 8.625 4.34375V6.40625ZM16.125 0.21875C14.4792 0.218752 12.8747 0.691264 11.5368 1.56994C10.1989 2.44862 9.19479 3.68933 8.6655 5.11788L10.7955 5.78063C11.1737 4.76011 11.8912 3.87382 12.847 3.24619C13.8029 2.61856 14.9492 2.28112 16.125 2.28125V0.21875ZM8.6655 5.11788C8.38954 5.86505 8.24917 6.64867 8.25 7.4375H10.5C10.5 6.85587 10.605 6.299 10.797 5.78063L8.6655 5.11788ZM23.625 4.34375C23.1945 4.34375 22.77 4.37262 22.3545 4.429L22.6845 6.4695C22.9959 6.42736 23.3102 6.40622 23.625 6.40625V4.34375ZM16.125 2.28125C17.3005 2.28141 18.4465 2.61898 19.4021 3.24659C20.3576 3.8742 21.0748 4.76033 21.453 5.78063L23.583 5.11788C23.0538 3.68956 22.0499 2.449 20.7123 1.57034C19.3748 0.691684 17.7706 0.219039 16.125 0.21875V2.28125ZM21.453 5.78063C21.645 6.299 21.75 6.85587 21.75 7.4375H24C24 6.62763 23.853 5.848 23.583 5.11788L21.453 5.78063ZM6.75 23.25V18.553H4.5V23.25H6.75ZM6.075 17.6084C4.93782 17.1532 3.97021 16.4038 3.29079 15.4521C2.61137 14.5003 2.24966 13.3874 2.25 12.25H1.91716e-08C-0.000111858 13.7886 0.489427 15.2938 1.40863 16.5811C2.32782 17.8685 3.63675 18.882 5.175 19.4976L6.075 17.6084ZM25.5 18.553V23.25H27.75V18.553H25.5ZM30 12.25C30.0003 13.3874 29.6386 14.5003 28.9592 15.4521C28.2798 16.4038 27.3122 17.1532 26.175 17.6084L27.075 19.4976C28.6132 18.882 29.9222 17.8685 30.8414 16.5811C31.7606 15.2938 32.2501 13.7886 32.25 12.25H30ZM21.75 7.4375V8.125H24V7.4375H21.75ZM8.25 7.4375V8.125H10.5V7.4375H8.25Z" fill="#F2F7F2"/>
</svg>
