<svg width="32" height="32" viewBox="0 0 32 32" fill="none" xmlns="http://www.w3.org/2000/svg">
<path fill-rule="evenodd" clip-rule="evenodd" d="M9.67073 5.67318C10.2373 4.47372 11.1331 3.45996 12.2537 2.74999C13.3743 2.04003 14.6735 1.66309 16.0001 1.66309C17.3266 1.66309 18.6259 2.04003 19.7464 2.74999C20.867 3.45996 21.7628 4.47372 22.3294 5.67318C24.0611 5.59642 25.7676 6.10874 27.1707 7.12657C28.5738 8.14439 29.5905 9.60764 30.0551 11.2776C30.5197 12.9476 30.4046 14.7257 29.7287 16.3218C29.0528 17.918 27.8559 19.238 26.3334 20.0665V24.0692C26.3334 25.2679 26.3334 26.2665 26.2267 27.0585C26.1147 27.8959 25.8667 28.6519 25.2587 29.2585C24.6521 29.8665 23.8961 30.1145 23.0587 30.2265C22.2667 30.3332 21.2667 30.3332 20.0694 30.3332H11.9307C10.7334 30.3332 9.7334 30.3332 8.9414 30.2265C8.10406 30.1145 7.34806 29.8665 6.7414 29.2585C6.1334 28.6519 5.8854 27.8959 5.7734 27.0585C5.66673 26.2665 5.66673 25.2679 5.66673 24.0692V20.0678C4.14418 19.2393 2.94733 17.9193 2.27143 16.3232C1.59553 14.727 1.48047 12.9489 1.94502 11.2789C2.40958 9.60897 3.42633 8.14572 4.82941 7.1279C6.23248 6.11007 7.93906 5.59642 9.67073 5.67318ZM9.07073 7.67451C7.79258 7.73359 6.57204 8.22349 5.60775 9.06449C4.64345 9.90549 3.99216 11.0481 3.75986 12.3063C3.52756 13.5646 3.72793 14.8644 4.32836 15.9943C4.92879 17.1242 5.89393 18.0176 7.06673 18.5292C7.24498 18.607 7.39668 18.7351 7.50325 18.8978C7.60982 19.0605 7.66663 19.2507 7.66673 19.4452V23.9998C7.66673 25.2852 7.6694 26.1492 7.75606 26.7932C7.83873 27.4079 7.9814 27.6719 8.15606 27.8452C8.3294 28.0185 8.59206 28.1612 9.20673 28.2452C9.85073 28.3305 10.7147 28.3332 12.0001 28.3332H20.0001C21.2854 28.3332 22.1494 28.3305 22.7934 28.2439C23.4081 28.1612 23.6721 28.0185 23.8454 27.8438C24.0187 27.6705 24.1614 27.4079 24.2454 26.7932C24.3307 26.1492 24.3334 25.2852 24.3334 23.9998V19.4452C24.3335 19.2507 24.3903 19.0605 24.4969 18.8978C24.6034 18.7351 24.7551 18.607 24.9334 18.5292C26.1058 18.0171 27.0705 17.1235 27.6705 15.9937C28.2706 14.8638 28.4708 13.5642 28.2386 12.3061C28.0064 11.048 27.3553 9.9055 26.3914 9.06436C25.4275 8.22321 24.2073 7.73291 22.9294 7.67318C22.9761 7.99718 23.0001 8.32918 23.0001 8.66651V9.33318C23.0001 9.5984 22.8947 9.85275 22.7072 10.0403C22.5196 10.2278 22.2653 10.3332 22.0001 10.3332C21.7348 10.3332 21.4805 10.2278 21.293 10.0403C21.1054 9.85275 21.0001 9.5984 21.0001 9.33318V8.66651C21.0008 8.00971 20.8719 7.35921 20.6209 6.75227C20.3699 6.14532 20.0016 5.59385 19.5372 5.12941C19.0727 4.66498 18.5213 4.29671 17.9143 4.04569C17.3074 3.79466 16.6569 3.66581 16.0001 3.66651C14.6742 3.66722 13.4028 4.19423 12.4653 5.13176C11.5278 6.06929 11.0008 7.34065 11.0001 8.66651V9.33318C11.0001 9.5984 10.8947 9.85275 10.7072 10.0403C10.5196 10.2278 10.2653 10.3332 10.0001 10.3332C9.73485 10.3332 9.48049 10.2278 9.29296 10.0403C9.10542 9.85275 9.00006 9.5984 9.00006 9.33318V8.66651C9.00006 8.32918 9.02406 7.99851 9.07073 7.67451ZM11.0001 23.9998C11.0001 23.7346 11.1054 23.4803 11.293 23.2927C11.4805 23.1052 11.7348 22.9998 12.0001 22.9998H20.0001C20.2653 22.9998 20.5196 23.1052 20.7072 23.2927C20.8947 23.4803 21.0001 23.7346 21.0001 23.9998C21.0001 24.2651 20.8947 24.5194 20.7072 24.707C20.5196 24.8945 20.2653 24.9998 20.0001 24.9998H12.0001C11.7348 24.9998 11.4805 24.8945 11.293 24.707C11.1054 24.5194 11.0001 24.2651 11.0001 23.9998Z" fill="#B22222"/>
</svg>
