<svg width="24" height="25" viewBox="0 0 24 25" fill="none" xmlns="http://www.w3.org/2000/svg">
<path d="M17 3.83989C18.5202 4.71758 19.7826 5.97997 20.6603 7.50017C21.538 9.02038 22 10.7448 22 12.5002C22 14.2556 21.5379 15.98 20.6602 17.5002C19.7825 19.0204 18.5201 20.2828 16.9999 21.1605C15.4797 22.0381 13.7552 22.5002 11.9998 22.5001C10.2445 22.5001 8.52002 22.038 6.99984 21.1603C5.47965 20.2826 4.21729 19.0202 3.33963 17.5C2.46198 15.9797 1.99996 14.2553 2 12.4999L2.005 12.1759C2.061 10.4489 2.56355 8.76585 3.46364 7.29089C4.36373 5.81592 5.63065 4.59934 7.14089 3.75977C8.65113 2.92021 10.3531 2.48629 12.081 2.50033C13.8089 2.51437 15.5036 2.97589 17 3.83989ZM12 6.49989C11.7348 6.49989 11.4804 6.60525 11.2929 6.79279C11.1054 6.98032 11 7.23468 11 7.49989V12.4999C11 12.7651 11.1054 13.0195 11.2929 13.207C11.4804 13.3945 11.7348 13.4999 12 13.4999H15.5C15.7652 13.4999 16.0196 13.3945 16.2071 13.207C16.3946 13.0195 16.5 12.7651 16.5 12.4999C16.5 12.2347 16.3946 11.9803 16.2071 11.7928C16.0196 11.6052 15.7652 11.4999 15.5 11.4999H13V7.49989C13 7.25496 12.91 7.01856 12.7473 6.83552C12.5845 6.65249 12.3603 6.53555 12.117 6.50689L12 6.49989Z" fill="#B22222"/>
</svg>
