<svg width="17" height="20" viewBox="0 0 17 20" fill="none" xmlns="http://www.w3.org/2000/svg">
<path d="M8.67542e-08 8.26824V7.23699C-3.67219e-05 6.78588 0.0985802 6.34022 0.288939 5.93124C0.479298 5.52226 0.756794 5.15986 1.10198 4.86943C1.44716 4.57901 1.85169 4.36758 2.2872 4.24998C2.72271 4.13237 3.17867 4.11143 3.62313 4.18862C3.91241 3.185 4.52018 2.30265 5.35477 1.67465C6.18936 1.04664 7.20552 0.707031 8.25 0.707031C9.29448 0.707031 10.3106 1.04664 11.1452 1.67465C11.9798 2.30265 12.5876 3.185 12.8769 4.18862C13.3213 4.11143 13.7773 4.13237 14.2128 4.24998C14.6483 4.36758 15.0528 4.57901 15.398 4.86943C15.7432 5.15986 16.0207 5.52226 16.2111 5.93124C16.4014 6.34022 16.5 6.78588 16.5 7.23699V8.26824C16.5003 10.3375 15.723 12.3313 14.3222 13.8543C12.9215 15.3773 10.9995 16.3183 8.9375 16.4907V18.5807H7.5625V16.4907C5.50047 16.3183 3.57852 15.3773 2.17776 13.8543C0.776995 12.3313 -0.000299822 10.3375 8.67542e-08 8.26824ZM6.16825 7.57937H10.3317C10.2706 7.03454 10.3556 6.48326 10.5779 5.98211C10.8002 5.48095 11.1518 5.04798 11.5968 4.72762C11.4187 3.97379 10.9913 3.30217 10.3839 2.82153C9.77647 2.34089 9.02458 2.07939 8.25 2.07939C7.47542 2.07939 6.72353 2.34089 6.11612 2.82153C5.5087 3.30217 5.08134 3.97379 4.90325 4.72762C5.34838 5.0481 5.70017 5.4813 5.92248 5.98271C6.1448 6.48413 6.22962 7.03569 6.16825 7.58074V7.57937ZM4.60213 7.57937C4.65311 7.35302 4.65253 7.11811 4.60042 6.89202C4.54831 6.66593 4.44601 6.45445 4.30109 6.27326C4.15617 6.09207 3.97235 5.9458 3.76324 5.84528C3.55413 5.74476 3.32508 5.69256 3.09306 5.69256C2.86104 5.69256 2.632 5.74476 2.42289 5.84528C2.21378 5.9458 2.02995 6.09207 1.88504 6.27326C1.74012 6.45445 1.63782 6.66593 1.58571 6.89202C1.5336 7.11811 1.53301 7.35302 1.584 7.57937H4.60213ZM11.8979 7.57937H14.9146C14.9656 7.35302 14.965 7.11811 14.9129 6.89202C14.8608 6.66593 14.7585 6.45445 14.6136 6.27326C14.4687 6.09207 14.2849 5.9458 14.0757 5.84528C13.8666 5.74476 13.6376 5.69256 13.4056 5.69256C13.1735 5.69256 12.9445 5.74476 12.7354 5.84528C12.5263 5.9458 12.3425 6.09207 12.1975 6.27326C12.0526 6.45445 11.9503 6.66593 11.8982 6.89202C11.8461 7.11811 11.8455 7.35302 11.8965 7.57937H11.8979ZM8.25 15.1432C9.95457 15.1432 11.5983 14.51 12.8624 13.3664C14.1264 12.2228 14.9205 10.6504 15.0906 8.95437H1.40938C1.57949 10.6504 2.37361 12.2228 3.63763 13.3664C4.90165 14.51 6.54543 15.1432 8.25 15.1432ZM5.5 18.5821H11C11.1823 18.5821 11.3572 18.6546 11.4861 18.7835C11.6151 18.9124 11.6875 19.0873 11.6875 19.2696C11.6875 19.452 11.6151 19.6268 11.4861 19.7558C11.3572 19.8847 11.1823 19.9571 11 19.9571H5.5C5.31766 19.9571 5.1428 19.8847 5.01386 19.7558C4.88493 19.6268 4.8125 19.452 4.8125 19.2696C4.8125 19.0873 4.88493 18.9124 5.01386 18.7835C5.1428 18.6546 5.31766 18.5821 5.5 18.5821Z" fill="#92000A"/>
</svg>
