<svg width="21" height="20" viewBox="0 0 21 20" fill="none" xmlns="http://www.w3.org/2000/svg">
<path d="M16.0021 0.451349C16.6082 0.451968 17.2067 0.586156 17.7551 0.844369C18.3035 1.10258 18.7882 1.47847 19.1748 1.9453C19.5615 2.41212 19.8404 2.95841 19.9919 3.5453C20.1434 4.13219 20.1637 4.74526 20.0514 5.34089C19.9391 5.93651 19.6968 6.50006 19.342 6.99145C18.9871 7.48283 18.5283 7.88996 17.9982 8.18389C17.4681 8.47782 16.8797 8.65131 16.275 8.69203C15.6702 8.73275 15.0639 8.63969 14.4992 8.41947L9.81458 14.6606V18.3263H11.8771C12.0594 18.3263 12.2343 18.3988 12.3632 18.5277C12.4921 18.6566 12.5646 18.8315 12.5646 19.0138C12.5646 19.1962 12.4921 19.3711 12.3632 19.5C12.2343 19.6289 12.0594 19.7013 11.8771 19.7013H6.37708C6.19474 19.7013 6.01987 19.6289 5.89094 19.5C5.76201 19.3711 5.68958 19.1962 5.68958 19.0138C5.68958 18.8315 5.76201 18.6566 5.89094 18.5277C6.01987 18.3988 6.19474 18.3263 6.37708 18.3263H8.43958V14.6606L1.15208 4.9531C0.97357 4.71509 0.877075 4.42561 0.877075 4.1281V3.89847C0.877075 3.71614 0.949508 3.54127 1.07844 3.41234C1.20737 3.28341 1.38224 3.21097 1.56458 3.21097H3.10733L1.69933 1.40972C1.58701 1.26604 1.53636 1.08363 1.55854 0.902609C1.58072 0.721589 1.67389 0.556793 1.81758 0.444474C1.96126 0.332155 2.14367 0.281513 2.32469 0.303689C2.50571 0.325865 2.67051 0.419043 2.78283 0.562724L4.85083 3.21097H12.1067C12.39 2.40403 12.9169 1.70503 13.6148 1.21065C14.3126 0.716269 15.1469 0.450938 16.0021 0.451349ZM13.6151 3.21097H16.6896C16.8719 3.21097 17.0468 3.28341 17.1757 3.41234C17.3046 3.54127 17.3771 3.71614 17.3771 3.89847V4.12672C17.3771 4.42423 17.2806 4.71372 17.1021 4.95172L15.3737 7.25485C15.8703 7.3712 16.3895 7.34714 16.8732 7.18536C17.357 7.02358 17.7862 6.73045 18.1129 6.33874C18.4396 5.94703 18.6509 5.47218 18.7232 4.96727C18.7956 4.46235 18.726 3.94727 18.5224 3.4796C18.3188 3.01194 17.9891 2.61011 17.5703 2.31905C17.1514 2.02798 16.6598 1.85915 16.1505 1.83142C15.6412 1.80369 15.1342 1.91816 14.6862 2.16203C14.2382 2.40589 13.8669 2.76955 13.6137 3.21235V3.21097H13.6151ZM5.92607 4.58597L8.7077 8.14722C8.81366 8.29137 8.85926 8.47115 8.83481 8.64838C8.81035 8.8256 8.71778 8.98632 8.57675 9.09639C8.43571 9.20646 8.25732 9.25722 8.07946 9.23789C7.90161 9.21856 7.73829 9.13065 7.6242 8.99285L4.1812 4.58597H2.59583L9.12708 13.2856L15.6583 4.58597H5.92607Z" fill="#92000A"/>
</svg>
