<svg width="20" height="20" viewBox="0 0 20 20" fill="none" xmlns="http://www.w3.org/2000/svg">
<path d="M15.8794 0.283624C16.4855 0.284243 17.0841 0.418432 17.6324 0.676644C18.1808 0.934856 18.6656 1.31075 19.0522 1.77757C19.4388 2.2444 19.7178 2.79069 19.8693 3.37758C20.0208 3.96447 20.0411 4.57754 19.9287 5.17316C19.8164 5.76879 19.5741 6.33234 19.2193 6.82372C18.8644 7.3151 18.4056 7.72224 17.8755 8.01617C17.3454 8.31009 16.7571 8.48359 16.1523 8.5243C15.5475 8.56502 14.9412 8.47196 14.3765 8.25175L9.69189 14.4929V18.1586H11.7544C11.9367 18.1586 12.1116 18.2311 12.2405 18.36C12.3695 18.4889 12.4419 18.6638 12.4419 18.8461C12.4419 19.0285 12.3695 19.2033 12.2405 19.3323C12.1116 19.4612 11.9367 19.5336 11.7544 19.5336H6.25439C6.07206 19.5336 5.89719 19.4612 5.76826 19.3323C5.63933 19.2033 5.56689 19.0285 5.56689 18.8461C5.56689 18.6638 5.63933 18.4889 5.76826 18.36C5.89719 18.2311 6.07206 18.1586 6.25439 18.1586H8.31689V14.4929L1.02939 4.78537C0.850889 4.54737 0.754395 4.25788 0.754395 3.96037V3.73075C0.754395 3.54841 0.826827 3.37354 0.955759 3.24461C1.08469 3.11568 1.25956 3.04325 1.44189 3.04325H2.98464L1.57664 1.242C1.46433 1.09832 1.41368 0.915904 1.43586 0.734884C1.45804 0.553865 1.55121 0.389069 1.69489 0.276749C1.83858 0.16443 2.02099 0.113788 2.20201 0.135965C2.38303 0.158141 2.54783 0.251318 2.66014 0.394999L4.72814 3.04325H11.984C12.2673 2.2363 12.7943 1.5373 13.4921 1.04292C14.19 0.548544 15.0242 0.283213 15.8794 0.283624ZM13.4924 3.04325H16.5669C16.7492 3.04325 16.9241 3.11568 17.053 3.24461C17.182 3.37354 17.2544 3.54841 17.2544 3.73075V3.959C17.2544 4.25651 17.1579 4.54599 16.9794 4.784L15.251 7.08712C15.7476 7.20348 16.2668 7.17942 16.7506 7.01764C17.2343 6.85586 17.6635 6.56273 17.9902 6.17102C18.3169 5.77931 18.5282 5.30446 18.6005 4.79954C18.6729 4.29463 18.6033 3.77955 18.3997 3.31188C18.1961 2.84421 17.8665 2.44239 17.4476 2.15132C17.0287 1.86026 16.5371 1.69143 16.0278 1.6637C15.5185 1.63597 15.0115 1.75043 14.5635 1.9943C14.1155 2.23817 13.7442 2.60183 13.491 3.04462V3.04325H13.4924ZM5.80339 4.41825L8.58502 7.9795C8.69098 8.12365 8.73658 8.30343 8.71212 8.48065C8.68767 8.65788 8.5951 8.81859 8.45406 8.92866C8.31303 9.03874 8.13464 9.0895 7.95678 9.07016C7.77893 9.05083 7.61561 8.96293 7.50152 8.82512L4.05852 4.41825H2.47314L9.00439 13.1179L15.5356 4.41825H5.80339Z" fill="#92000A"/>
</svg>
