<svg width="22" height="23" viewBox="0 0 22 23" fill="none" xmlns="http://www.w3.org/2000/svg">
<path d="M18.3394 12.0145C18.6044 10.554 18.204 9.32745 17.1452 8.46842C16.6798 8.09064 16.1679 7.8978 15.6265 7.88817C15.5423 7.34402 15.0569 7.28558 14.8173 7.25945C14.5186 7.2268 14.4378 7.21786 14.399 6.93048C14.3247 6.38495 14.0319 6.30348 13.8631 6.30348C13.639 6.30348 13.4499 6.44924 13.2385 6.65377C13.2244 6.63933 13.2107 6.6242 13.1962 6.60977C13.2729 6.15052 13.2993 5.74145 13.1546 5.57989C12.8325 5.22033 12.8098 5.36092 12.5108 4.73255C12.3399 4.37436 12.618 3.58339 11.7054 3.75595C11.4692 3.8003 11.2008 3.92989 10.9323 4.09592C10.8717 4.0196 10.8125 3.94213 10.7549 3.86355C9.56828 2.22799 8.29366 4.11999 7.15962 5.8848C6.96932 5.85262 6.77649 5.83766 6.5835 5.84011C6.39925 5.84011 6.23116 5.85111 6.12184 5.87002C5.84925 5.91711 5.71691 6.1457 5.61103 6.32927C5.44706 6.61183 5.38897 6.64895 5.21331 6.60702C5.13406 6.58706 5.0527 6.57667 4.97097 6.57608C4.31544 6.57608 4.26697 7.25223 4.24119 7.61558C4.22813 7.79708 4.21472 7.98511 4.16694 8.11883C4.14975 8.16558 4.13738 8.17864 4.12534 8.17039C4.08684 8.17039 4.04662 8.16558 4.00606 8.1618C3.94067 8.15413 3.87493 8.14988 3.80909 8.14908C3.57466 8.14908 3.38078 8.22952 3.23297 8.38799C2.98237 8.65645 3.04219 9.15936 3.19516 9.6523C3.08413 9.65917 2.99819 9.68736 2.95728 9.7482C2.75619 10.05 3.07828 10.9479 2.31344 10.865C1.54825 10.7829 1.70947 11.2573 1.46816 11.5161C1.2265 11.7746 1.05462 12.2057 1.10069 12.3353C1.11616 12.3803 1.166 12.6147 1.23922 12.887C0.901313 13.4635 0.6875 13.8732 0.6875 14.899C0.6875 16.4022 2.53447 18.7902 5.30166 19.201C5.87881 19.2866 6.62647 19.423 7.41778 19.5664C9.52153 19.949 12.1395 20.4258 13.9999 20.4258C14.6293 20.4258 15.126 20.3728 15.5189 20.2635C17.6691 19.6657 19.0661 18.3787 19.1245 18.3237L19.3566 18.1072C20.4212 17.463 21.1664 16.7322 21.3067 16.0375C21.4098 15.5253 20.0891 13.9206 18.3394 12.0145ZM15.6365 8.62723L15.6386 8.57945C16.0157 8.59183 16.3773 8.73208 16.7135 9.00502C18.0245 10.0682 17.8269 11.6378 17.4154 12.79C16.743 12.6415 17.0215 11.7849 16.5626 11.1706C16.4735 11.0507 16.3807 10.9775 16.2869 10.931L16.2913 10.4611C16.3044 9.34189 16.3078 9.04111 15.7293 9.0033C15.7042 9.00158 15.6757 8.99986 15.6324 8.99367C15.6197 8.91564 15.6293 8.75167 15.6365 8.62723ZM12.9178 8.16902C12.9226 8.07173 12.9394 7.95177 12.9621 7.81942C13.1794 7.6857 13.3791 7.48633 13.5637 7.30002C13.6146 7.24914 13.6764 7.18658 13.7359 7.1302C13.882 7.85139 14.4385 7.91189 14.7431 7.94524C14.8177 7.95349 14.9308 7.96586 14.9462 7.96689C14.9462 7.96689 14.9514 7.97824 14.9542 8.00849C14.9731 8.20889 14.9621 8.4007 14.9511 8.58633C14.9277 8.98611 14.8919 9.59008 15.5313 9.6767C15.5567 9.68048 15.5812 9.68324 15.6038 9.68495C15.6111 9.8417 15.6087 10.1219 15.6045 10.4525C15.6011 10.765 15.5966 11.1665 15.5966 11.6832L15.6049 11.7609C15.6093 11.7774 15.6124 11.7973 15.6152 11.8183C15.0765 11.4068 13.54 9.60245 12.8889 8.53855C12.9023 8.42133 12.9119 8.29586 12.9178 8.16902ZM3.73416 8.85995C3.74584 8.84724 3.75341 8.83864 3.80909 8.83864C3.85172 8.83864 3.89469 8.84345 3.93697 8.84792C4.00125 8.85445 4.0645 8.8603 4.12534 8.8603C4.45603 8.8603 4.69356 8.68464 4.81284 8.35292C4.89328 8.12914 4.91081 7.88267 4.92662 7.66508C4.93522 7.54236 4.94931 7.3447 4.97991 7.26633C4.99572 7.26702 5.01978 7.26977 5.0545 7.27836C5.14422 7.29967 5.23222 7.31033 5.31506 7.31033C5.83791 7.31033 6.06719 6.9133 6.20503 6.67611C6.22841 6.63452 6.26244 6.57677 6.2865 6.54308C6.46329 6.52879 6.64086 6.52672 6.81794 6.53689C6.15416 7.21683 5.24322 8.19342 4.91803 8.75133C4.86303 8.84552 4.80253 8.95277 4.73859 9.0662C4.62206 9.2728 4.43059 9.61208 4.25769 9.87367C4.16464 9.84187 4.07089 9.81219 3.9765 9.78464C3.80566 9.35152 3.70253 8.96033 3.73416 8.85995ZM15.3357 19.5987C15.0081 19.6901 14.5588 19.7359 13.9999 19.7359C12.2014 19.7359 9.61675 19.2656 7.54016 18.8875C6.743 18.7424 5.9895 18.6056 5.40203 18.5183C3.07244 18.1725 1.48466 16.1426 1.37191 14.8391C1.37191 14.8391 1.95216 14.9557 2.19553 14.8763C2.86309 14.6573 3.54441 13.8234 4.50725 12.5752C5.04866 11.874 6.3525 10.1569 6.76912 9.36389C8.13966 6.75483 8.78487 6.55202 8.95056 6.55202C8.98013 6.55202 9.05816 6.55202 9.1685 6.70395C9.33591 6.93495 9.48372 7.23573 9.67106 7.61661C9.96806 8.22195 10.3758 9.05108 11.1378 10.1473C11.7411 11.0153 12.5843 11.7688 13.4004 12.4975C14.0883 13.1121 14.7376 13.6931 15.2457 14.3287C15.6582 14.8457 15.9514 15.45 16.2343 16.0344C16.6856 16.9659 17.1493 17.9229 18.0768 18.2753C17.5041 18.6823 16.5409 19.2635 15.3357 19.5987ZM20.7721 15.9993C20.6559 16.5094 19.7044 17.2382 18.8516 17.7229C17.8599 17.7019 17.4419 16.9522 16.8517 15.7329C16.5516 15.1141 16.2422 14.4748 15.7816 13.898C15.2374 13.2166 14.5355 12.5893 13.8566 11.9826C13.0704 11.2803 12.2581 10.5546 11.7009 9.75302C10.9687 8.69942 10.5909 7.93011 10.2871 7.3117C10.0853 6.90127 9.92578 6.57711 9.724 6.29799C9.46241 5.93774 9.15887 5.86211 8.95056 5.86211C8.47034 5.86211 7.65875 6.19142 6.16138 9.0418C5.75884 9.80802 4.378 11.6168 3.96447 12.1527C3.31203 12.9987 2.49941 14.0509 1.98069 14.2197C1.91606 14.2197 1.41797 14.0227 1.27359 14.0124C1.35644 13.8048 1.46266 13.6594 1.4905 13.6137C1.59328 13.8223 1.70947 13.9444 1.83012 13.8433C2.10891 13.6109 3.94212 11.6014 4.56569 10.6014C4.78397 10.3566 5.02081 9.96511 5.33603 9.40549C5.39825 9.29549 5.45737 9.19133 5.511 9.0992C5.75712 8.67708 6.51544 7.81461 7.59069 6.73249C7.80931 6.51317 7.74056 6.2887 7.71409 6.22511C7.6876 6.16166 7.6465 6.10536 7.59412 6.0608C8.14309 5.2162 8.78797 4.35545 9.12897 4.0997C9.66591 3.69683 9.71472 3.46377 10.4796 4.30458L10.5353 4.36508C9.92063 4.81814 9.39778 5.3513 9.39778 5.3513C8.84125 5.86933 10.1489 6.3987 10.9429 6.73902C11.4665 6.9628 11.7707 7.71698 12.0251 8.32061C12.0405 8.35911 12.0574 8.39898 12.0752 8.43886C12.1835 8.69289 12.2853 8.90877 12.3932 9.02977C13.0157 10.0462 14.0948 11.2961 14.8098 11.9939C15.1088 12.4518 15.7596 13.019 16.4412 13.4982C17.7292 14.4036 18.0916 16.3001 18.3731 16.6882C18.655 17.0763 18.8963 16.5156 19.0575 16.3001C19.2184 16.0845 19.7416 15.2224 19.5002 15.0069C19.2586 14.7914 18.5745 14.7914 18.5745 14.1877C18.5745 13.7498 18.4518 13.2627 18.0727 12.9987C18.1139 12.8835 18.15 12.7698 18.1833 12.657C18.5615 13.1754 18.9155 13.6697 19.1647 13.967C19.81 14.734 20.9285 15.309 20.7721 15.9993Z" fill="#92000A"/>
<path d="M15.4541 13.8212C15.406 13.7721 15.0643 14.0687 14.5947 14.5506C14.2391 14.0208 13.8804 13.4932 13.5184 12.9677C13.8773 12.5098 14.0829 12.2021 14.0447 12.164C14.0076 12.1265 13.7477 12.3486 13.36 12.736L13.009 12.2286C12.7209 11.8134 12.4313 11.3993 12.14 10.9863C12.3645 10.7068 12.4875 10.5284 12.4686 10.4971C12.449 10.4659 12.2871 10.5896 12.0269 10.8251C11.6941 10.354 11.3589 9.88462 11.0211 9.41708C11.3683 8.98877 11.5591 8.72374 11.5343 8.69383C11.5096 8.66392 11.2751 8.8688 10.8953 9.24452C9.97472 7.97746 9.34875 7.17067 9.29925 7.20986C9.24941 7.24905 9.79803 8.1373 10.6763 9.46314C10.1342 10.0107 9.37694 10.8117 8.52959 11.7371C8.25164 11.3548 7.96732 10.9772 7.67675 10.6044C7.84945 10.4193 8.01962 10.2318 8.18722 10.042C9.03525 9.08158 9.66225 8.24249 9.58869 8.16789C9.51547 8.09364 8.76816 8.81174 7.91978 9.77252C7.75983 9.95346 7.60249 10.1367 7.44781 10.3222C7.278 10.1187 7.17006 10.0104 7.14841 10.0279C7.12572 10.0458 7.19825 10.1984 7.34194 10.4497C6.80637 11.1001 6.46194 11.591 6.51831 11.6473C6.57125 11.701 6.98203 11.3352 7.52756 10.7629C7.72487 11.0867 7.99094 11.503 8.30581 11.9811L8.02325 12.2922C7.77919 12.5617 7.54337 12.825 7.31512 13.0801C6.89712 12.537 6.60356 12.2073 6.55784 12.2444C6.50972 12.2819 6.73212 12.6971 7.11334 13.3076C6.79014 13.6715 6.46975 14.0378 6.15222 14.4066C5.53828 13.5551 5.03159 12.9556 4.96078 13.0117C4.88928 13.0687 5.298 13.7923 5.90472 14.695C5.16703 15.5613 4.715 16.137 4.75212 16.1835C4.78959 16.2285 5.30075 15.7417 6.07212 14.9415L6.14672 15.0501C6.88269 16.1109 7.54544 16.9194 7.62656 16.8541C7.70769 16.7898 7.17659 15.8772 6.44131 14.8153L6.33647 14.6651C6.63416 14.3523 6.96347 14.001 7.31341 13.6232C7.58658 14.0459 7.86724 14.4638 8.15525 14.8765C7.6465 15.4661 7.3385 15.8634 7.36806 15.9126C7.39797 15.9614 7.76372 15.6448 8.31612 15.1068C9.17481 16.3254 9.89738 17.2281 9.97231 17.168C10.0486 17.1075 9.43984 16.0889 8.58631 14.8411C8.87987 14.55 9.21194 14.211 9.566 13.8422L9.58662 13.8721C9.98828 14.4515 10.3961 15.0266 10.81 15.5974C10.3456 16.1759 10.0658 16.5767 10.1098 16.6214C10.1531 16.6647 10.4969 16.3571 10.9929 15.848C11.7406 16.8679 12.2668 17.5241 12.3187 17.4825C12.3717 17.4405 11.9265 16.6956 11.2174 15.6146C11.547 15.2665 11.8704 14.9126 12.1874 14.5531L12.2968 14.7115C12.609 15.162 12.9263 15.6089 13.2486 16.0521C12.6897 16.7269 12.3263 17.2425 12.3834 17.3C12.4391 17.3563 12.8818 16.9572 13.4614 16.343C14.1313 17.2522 14.6116 17.839 14.6648 17.7963C14.7192 17.7534 14.3214 17.0738 13.6862 16.1013C13.8055 15.9721 13.9268 15.8366 14.0516 15.695C14.2276 15.4962 14.4005 15.2948 14.5703 15.0907C15.6304 16.5609 16.3712 17.5244 16.4248 17.4821C16.4788 17.4392 15.814 16.3749 14.7831 14.8308C15.2293 14.276 15.5039 13.8717 15.4541 13.8212ZM8.40962 14.585C8.12713 14.1771 7.83742 13.7743 7.54062 13.3767C7.77472 13.1224 8.01637 12.8577 8.26387 12.5844C8.3505 12.4895 8.43437 12.3957 8.51894 12.3022C8.79479 12.7166 9.07404 13.1288 9.35666 13.5386C9.03681 13.8836 8.72111 14.2325 8.40962 14.585ZM9.61619 13.2588C9.33141 12.8511 9.04322 12.4458 8.75166 12.043C9.58766 11.1097 10.3133 10.2734 10.8135 9.66974C11.1262 10.1394 11.4414 10.6074 11.7591 11.0736C11.4931 11.3252 11.1672 11.6477 10.8014 12.0203C10.4718 11.6023 10.2573 11.3641 10.2226 11.3919C10.1868 11.4198 10.3442 11.7181 10.6327 12.1929C10.3752 12.4572 10.1026 12.7415 9.82003 13.0423C9.75128 13.1148 9.68391 13.187 9.61619 13.2588ZM11.9437 14.2571C11.6327 14.609 11.3276 14.966 11.0287 15.3282C10.6355 14.7365 10.2362 14.1488 9.83069 13.5655C9.89291 13.5001 9.95409 13.4345 10.0173 13.3681C10.3013 13.0667 10.5715 12.7741 10.8231 12.4981C11.1939 13.0827 11.5752 13.6607 11.9667 14.2316C11.959 14.24 11.9513 14.2485 11.9437 14.2571ZM12.2201 13.947C11.8273 13.3876 11.4241 12.8356 11.0108 12.2912C11.3125 11.9586 11.6087 11.621 11.899 11.2785C12.2941 11.8569 12.6922 12.4333 13.0932 13.0076C12.8344 13.276 12.5363 13.5957 12.2201 13.947ZM13.7848 15.4255C13.6783 15.5468 13.5752 15.6658 13.4762 15.782C13.1379 15.2712 12.7932 14.7647 12.4422 14.2626C12.7261 13.9364 13.0047 13.6055 13.2778 13.2702C13.6352 13.781 13.9954 14.2897 14.3586 14.7964C14.164 15.0031 13.9727 15.2128 13.7848 15.4255Z" fill="#92000A"/>
</svg>
