<svg width="20" height="15" viewBox="0 0 20 15" fill="none" xmlns="http://www.w3.org/2000/svg">
<path d="M18.9999 1.71661e-05L0.999914 1.71661e-05C0.817673 0.000588417 0.639038 0.0508518 0.483238 0.145395C0.327438 0.239939 0.200373 0.375182 0.115719 0.53657C0.031065 0.697957 -0.00797081 0.879377 0.00281143 1.0613C0.0135937 1.24322 0.0737877 1.41876 0.176914 1.56902L9.17691 14.569C9.54991 15.108 10.4479 15.108 10.8219 14.569L19.8219 1.56902C19.9261 1.41907 19.9872 1.24345 19.9985 1.06122C20.0099 0.878996 19.9711 0.697139 19.8864 0.53541C19.8017 0.373681 19.6742 0.238263 19.518 0.143873C19.3617 0.0494833 19.1825 -0.000270844 18.9999 1.71661e-05Z" fill="#F8F8F8"/>
</svg>
