<svg width="28" height="28" viewBox="0 0 28 28" fill="none" xmlns="http://www.w3.org/2000/svg">
<path d="M6.08697 7.85308V1.13743C6.08697 0.840584 6.21523 0.555892 6.44353 0.345988C6.67184 0.136083 6.98148 0.0181598 7.30436 0.0181598C7.62723 0.0181598 7.93688 0.136083 8.16518 0.345988C8.39349 0.555892 8.52175 0.840584 8.52175 1.13743V7.85308C8.52175 8.14992 8.39349 8.43462 8.16518 8.64452C7.93688 8.85443 7.62723 8.97235 7.30436 8.97235C6.98148 8.97235 6.67184 8.85443 6.44353 8.64452C6.21523 8.43462 6.08697 8.14992 6.08697 7.85308ZM28 1.13743V26.8807C28 27.1776 27.8717 27.4623 27.6434 27.6722C27.4151 27.8821 27.1055 28 26.7826 28C26.4597 28 26.1501 27.8821 25.9218 27.6722C25.6935 27.4623 25.5652 27.1776 25.5652 26.8807V20.1651H18.2609C17.938 20.1651 17.6284 20.0472 17.4 19.8373C17.1717 19.6274 17.0435 19.3427 17.0435 19.0458C17.1 16.3647 17.4683 13.6968 18.1422 11.0878C19.6304 5.42285 22.4517 1.62572 26.3033 0.109101C26.4884 0.0361948 26.6903 0.00665116 26.8909 0.023118C27.0915 0.0395849 27.2845 0.101547 27.4526 0.203454C27.6208 0.30536 27.7588 0.444026 27.8543 0.607028C27.9499 0.77003 27.9999 0.952275 28 1.13743ZM25.5652 3.08217C20.6698 6.51974 19.7111 14.8933 19.5239 17.9265H25.5652V3.08217ZM13.3746 0.954152C13.3507 0.807184 13.2953 0.666052 13.2115 0.538988C13.1277 0.411924 13.0172 0.301471 12.8865 0.214073C12.7558 0.126675 12.6075 0.0640805 12.4502 0.029941C12.2929 -0.00419856 12.1298 -0.00919976 11.9704 0.015229C11.8109 0.0396577 11.6584 0.0930275 11.5217 0.172225C11.3849 0.251423 11.2667 0.354863 11.1739 0.476512C11.081 0.598161 11.0155 0.735585 10.9811 0.880766C10.9466 1.02595 10.944 1.17598 10.9733 1.32211L12.1739 7.94122C12.1739 9.12862 11.6609 10.2674 10.7477 11.107C9.83444 11.9466 8.59584 12.4183 7.30436 12.4183C6.01287 12.4183 4.77428 11.9466 3.86105 11.107C2.94783 10.2674 2.43479 9.12862 2.43479 7.94122L3.63392 1.32211C3.66321 1.17598 3.66056 1.02595 3.62612 0.880766C3.59168 0.735585 3.52614 0.598161 3.43333 0.476512C3.34052 0.354863 3.22229 0.251423 3.08554 0.172225C2.94878 0.0930275 2.79625 0.0396577 2.63683 0.015229C2.47741 -0.00919976 2.31429 -0.00419856 2.15699 0.029941C1.9997 0.0640805 1.85137 0.126675 1.72066 0.214073C1.58995 0.301471 1.47948 0.411924 1.39569 0.538988C1.3119 0.666052 1.25646 0.807184 1.23262 0.954152L0.0152287 7.66979C0.00481294 7.73041 -0.000275739 7.7917 1.15125e-05 7.85308C0.00244397 9.43938 0.614669 10.9738 1.72851 12.1853C2.84234 13.3968 4.38609 14.2073 6.08697 14.4736V26.8807C6.08697 27.1776 6.21523 27.4623 6.44353 27.6722C6.67184 27.8821 6.98148 28 7.30436 28C7.62723 28 7.93688 27.8821 8.16518 27.6722C8.39349 27.4623 8.52175 27.1776 8.52175 26.8807V14.4736C10.2226 14.2073 11.7664 13.3968 12.8802 12.1853C13.994 10.9738 14.6063 9.43938 14.6087 7.85308C14.6085 7.79167 14.6029 7.73038 14.592 7.66979L13.3746 0.954152Z" fill="#B22222"/>
</svg>
