<svg width="32" height="32" viewBox="0 0 32 32" fill="none" xmlns="http://www.w3.org/2000/svg">
<path fill-rule="evenodd" clip-rule="evenodd" d="M26.6666 5.33317H5.33325C4.97963 5.33317 4.64049 5.47365 4.39044 5.7237C4.14039 5.97374 3.99992 6.31288 3.99992 6.6665V25.3332C3.99992 25.6868 4.14039 26.0259 4.39044 26.276C4.64049 26.526 4.97963 26.6665 5.33325 26.6665H26.6666C27.0202 26.6665 27.3593 26.526 27.6094 26.276C27.8594 26.0259 27.9999 25.6868 27.9999 25.3332V6.6665C27.9999 6.31288 27.8594 5.97374 27.6094 5.7237C27.3593 5.47365 27.0202 5.33317 26.6666 5.33317ZM5.33325 2.6665C4.27239 2.6665 3.25497 3.08793 2.50482 3.83808C1.75468 4.58822 1.33325 5.60564 1.33325 6.6665V25.3332C1.33325 26.394 1.75468 27.4115 2.50482 28.1616C3.25497 28.9117 4.27239 29.3332 5.33325 29.3332H26.6666C27.7275 29.3332 28.7449 28.9117 29.495 28.1616C30.2452 27.4115 30.6666 26.394 30.6666 25.3332V6.6665C30.6666 5.60564 30.2452 4.58822 29.495 3.83808C28.7449 3.08793 27.7275 2.6665 26.6666 2.6665H5.33325ZM7.99992 9.33317H10.6666V11.9998H7.99992V9.33317ZM14.6666 9.33317C14.313 9.33317 13.9738 9.47365 13.7238 9.7237C13.4737 9.97374 13.3333 10.3129 13.3333 10.6665C13.3333 11.0201 13.4737 11.3593 13.7238 11.6093C13.9738 11.8594 14.313 11.9998 14.6666 11.9998H22.6666C23.0202 11.9998 23.3593 11.8594 23.6094 11.6093C23.8594 11.3593 23.9999 11.0201 23.9999 10.6665C23.9999 10.3129 23.8594 9.97374 23.6094 9.7237C23.3593 9.47365 23.0202 9.33317 22.6666 9.33317H14.6666ZM10.6666 14.6665H7.99992V17.3332H10.6666V14.6665ZM13.3333 15.9998C13.3333 15.6462 13.4737 15.3071 13.7238 15.057C13.9738 14.807 14.313 14.6665 14.6666 14.6665H22.6666C23.0202 14.6665 23.3593 14.807 23.6094 15.057C23.8594 15.3071 23.9999 15.6462 23.9999 15.9998C23.9999 16.3535 23.8594 16.6926 23.6094 16.9426C23.3593 17.1927 23.0202 17.3332 22.6666 17.3332H14.6666C14.313 17.3332 13.9738 17.1927 13.7238 16.9426C13.4737 16.6926 13.3333 16.3535 13.3333 15.9998ZM10.6666 19.9998H7.99992V22.6665H10.6666V19.9998ZM13.3333 21.3332C13.3333 20.9795 13.4737 20.6404 13.7238 20.3904C13.9738 20.1403 14.313 19.9998 14.6666 19.9998H22.6666C23.0202 19.9998 23.3593 20.1403 23.6094 20.3904C23.8594 20.6404 23.9999 20.9795 23.9999 21.3332C23.9999 21.6868 23.8594 22.0259 23.6094 22.276C23.3593 22.526 23.0202 22.6665 22.6666 22.6665H14.6666C14.313 22.6665 13.9738 22.526 13.7238 22.276C13.4737 22.0259 13.3333 21.6868 13.3333 21.3332Z" fill="#B22222"/>
</svg>
