<svg width="24" height="24" viewBox="0 0 24 24" fill="none" xmlns="http://www.w3.org/2000/svg">
<path fill-rule="evenodd" clip-rule="evenodd" d="M5.49942 0.984007C5.61344 0.682532 5.83652 0.434876 6.12449 0.290099C6.41246 0.145321 6.7443 0.113983 7.05428 0.202293L13.2274 1.96115C13.5378 2.04966 13.8035 2.25163 13.9718 2.52697C14.1401 2.80231 14.1987 3.13088 14.136 3.44744L12.3429 12.54C12.1006 13.7673 11.4304 14.8686 10.4518 15.6479C9.47324 16.4271 8.24977 16.8336 6.99942 16.7949L5.84742 20.8354L7.11599 21.1972C7.44403 21.2906 7.72151 21.5105 7.8874 21.8085C8.05329 22.1065 8.094 22.4583 8.00057 22.7863C7.90713 23.1143 7.68722 23.3918 7.3892 23.5577C7.09117 23.7236 6.73946 23.7643 6.41142 23.6709L3.96514 22.9714C3.92461 22.962 3.88456 22.9505 3.84514 22.9372L1.39542 22.2394C1.06739 22.1458 0.789995 21.9256 0.624267 21.6275C0.458538 21.3293 0.41805 20.9775 0.511709 20.6494C0.605369 20.3214 0.825503 20.044 1.12369 19.8783C1.42187 19.7126 1.77367 19.6721 2.10171 19.7657L3.37371 20.1292L4.52571 16.0886C3.44301 15.4623 2.6178 14.4719 2.19711 13.294C1.77642 12.1161 1.78757 10.8271 2.22857 9.65658L5.49942 0.984007ZM6.32399 6.08229L10.7366 7.39544L11.3846 4.10915L7.488 2.99829L6.32399 6.08229ZM17.1463 16.9183C15.7744 16.9183 14.4564 16.3847 13.4709 15.4303C13.9416 14.6706 14.2709 13.8319 14.4429 12.9549L15.6394 6.88801L18.1749 6.28286L17.0931 3.11315L16.3011 3.31201C16.3308 2.41764 16.0097 1.5471 15.4063 0.886293L17.6143 0.332579C17.9272 0.253743 18.2584 0.295482 18.542 0.449509C18.8256 0.603535 19.0409 0.858583 19.1451 1.16401L22.1383 9.93601C22.5418 11.1195 22.5123 12.4078 22.0549 13.5715C21.5975 14.7352 20.7419 15.6989 19.6406 16.2909L20.6623 20.3657L21.9394 20.0452C22.2702 19.9622 22.6204 20.014 22.9129 20.1892C23.2055 20.3644 23.4164 20.6487 23.4994 20.9794C23.5824 21.3102 23.5306 21.6604 23.3554 21.9529C23.1802 22.2455 22.8959 22.4565 22.5651 22.5394L20.0914 23.16C20.0581 23.17 20.0243 23.1786 19.9903 23.1857L17.5063 23.8097C17.1755 23.8927 16.8253 23.8409 16.5328 23.6657C16.2402 23.4905 16.0293 23.2062 15.9463 22.8754C15.8633 22.5447 15.9151 22.1945 16.0903 21.9019C16.2655 21.6094 16.5498 21.3984 16.8806 21.3154L18.168 20.9914L17.1463 16.9183Z" fill="#670029"/>
</svg>
