<svg width="256" height="256" viewBox="0 0 256 256" fill="none" xmlns="http://www.w3.org/2000/svg">
<path d="M240 116H219.22C216.545 95.9293 207.338 77.2971 193.021 62.9795C178.703 48.6619 160.071 39.455 140 36.78V16C140 12.8174 138.736 9.76516 136.485 7.51472C134.235 5.26428 131.183 4 128 4C124.817 4 121.765 5.26428 119.515 7.51472C117.264 9.76516 116 12.8174 116 16V36.78C95.9293 39.455 77.2971 48.6619 62.9795 62.9795C48.6619 77.2971 39.455 95.9293 36.78 116H16C12.8174 116 9.76516 117.264 7.51472 119.515C5.26428 121.765 4 124.817 4 128C4 131.183 5.26428 134.235 7.51472 136.485C9.76516 138.736 12.8174 140 16 140H36.78C39.455 160.071 48.6619 178.703 62.9795 193.021C77.2971 207.338 95.9293 216.545 116 219.22V240C116 243.183 117.264 246.235 119.515 248.485C121.765 250.736 124.817 252 128 252C131.183 252 134.235 250.736 136.485 248.485C138.736 246.235 140 243.183 140 240V219.22C160.071 216.545 178.703 207.338 193.021 193.021C207.338 178.703 216.545 160.071 219.22 140H240C243.183 140 246.235 138.736 248.485 136.485C250.736 134.235 252 131.183 252 128C252 124.817 250.736 121.765 248.485 119.515C246.235 117.264 243.183 116 240 116ZM128 196C114.551 196 101.404 192.012 90.2212 184.54C79.0387 177.068 70.323 166.448 65.1762 154.022C60.0294 141.597 58.6828 127.925 61.3066 114.734C63.9304 101.543 70.4068 89.4267 79.9167 79.9167C89.4267 70.4068 101.543 63.9304 114.734 61.3066C127.925 58.6828 141.597 60.0294 154.022 65.1762C166.448 70.323 177.068 79.0387 184.54 90.2212C192.012 101.404 196 114.551 196 128C195.981 146.029 188.811 163.314 176.063 176.063C163.314 188.811 146.029 195.981 128 196Z" fill="#F2F7F2"/>
</svg>
