<svg width="24" height="24" viewBox="0 0 24 24" fill="none" xmlns="http://www.w3.org/2000/svg">
<path d="M5 6.5C5.82843 6.5 6.5 5.82843 6.5 5C6.5 4.17157 5.82843 3.5 5 3.5C4.17157 3.5 3.5 4.17157 3.5 5C3.5 5.82843 4.17157 6.5 5 6.5Z" stroke="#B22222" stroke-linecap="round"/>
<path d="M5 13.5C5.82843 13.5 6.5 12.8284 6.5 12C6.5 11.1716 5.82843 10.5 5 10.5C4.17157 10.5 3.5 11.1716 3.5 12C3.5 12.8284 4.17157 13.5 5 13.5Z" stroke="#B22222" stroke-linecap="round"/>
<path d="M5 20.5C5.82843 20.5 6.5 19.8284 6.5 19C6.5 18.1716 5.82843 17.5 5 17.5C4.17157 17.5 3.5 18.1716 3.5 19C3.5 19.8284 4.17157 20.5 5 20.5Z" stroke="#B22222" stroke-linecap="round"/>
<path d="M19 3.5H11C10.1716 3.5 9.5 4.17157 9.5 5C9.5 5.82843 10.1716 6.5 11 6.5H19C19.8284 6.5 20.5 5.82843 20.5 5C20.5 4.17157 19.8284 3.5 19 3.5Z" stroke="#B22222" stroke-linecap="round"/>
<path d="M19 10.5H11C10.1716 10.5 9.5 11.1716 9.5 12C9.5 12.8284 10.1716 13.5 11 13.5H19C19.8284 13.5 20.5 12.8284 20.5 12C20.5 11.1716 19.8284 10.5 19 10.5Z" stroke="#B22222" stroke-linecap="round"/>
<path d="M19 17.5H11C10.1716 17.5 9.5 18.1716 9.5 19C9.5 19.8284 10.1716 20.5 11 20.5H19C19.8284 20.5 20.5 19.8284 20.5 19C20.5 18.1716 19.8284 17.5 19 17.5Z" stroke="#B22222" stroke-linecap="round"/>
</svg>
