<svg width="18" height="18" viewBox="0 0 18 18" fill="none" xmlns="http://www.w3.org/2000/svg">
<path d="M2 3.5C2.82843 3.5 3.5 2.82843 3.5 2C3.5 1.17157 2.82843 0.5 2 0.5C1.17157 0.5 0.5 1.17157 0.5 2C0.5 2.82843 1.17157 3.5 2 3.5Z" stroke="#F2F7F2" stroke-linecap="round"/>
<path d="M2 10.5C2.82843 10.5 3.5 9.82843 3.5 9C3.5 8.17157 2.82843 7.5 2 7.5C1.17157 7.5 0.5 8.17157 0.5 9C0.5 9.82843 1.17157 10.5 2 10.5Z" stroke="#F2F7F2" stroke-linecap="round"/>
<path d="M2 17.5C2.82843 17.5 3.5 16.8284 3.5 16C3.5 15.1716 2.82843 14.5 2 14.5C1.17157 14.5 0.5 15.1716 0.5 16C0.5 16.8284 1.17157 17.5 2 17.5Z" stroke="#F2F7F2" stroke-linecap="round"/>
<path d="M16 0.5H8C7.17157 0.5 6.5 1.17157 6.5 2C6.5 2.82843 7.17157 3.5 8 3.5H16C16.8284 3.5 17.5 2.82843 17.5 2C17.5 1.17157 16.8284 0.5 16 0.5Z" stroke="#F2F7F2" stroke-linecap="round"/>
<path d="M16 7.5H8C7.17157 7.5 6.5 8.17157 6.5 9C6.5 9.82843 7.17157 10.5 8 10.5H16C16.8284 10.5 17.5 9.82843 17.5 9C17.5 8.17157 16.8284 7.5 16 7.5Z" stroke="#F2F7F2" stroke-linecap="round"/>
<path d="M16 14.5H8C7.17157 14.5 6.5 15.1716 6.5 16C6.5 16.8284 7.17157 17.5 8 17.5H16C16.8284 17.5 17.5 16.8284 17.5 16C17.5 15.1716 16.8284 14.5 16 14.5Z" stroke="#F2F7F2" stroke-linecap="round"/>
</svg>
