<svg width="17" height="20" viewBox="0 0 17 20" fill="none" xmlns="http://www.w3.org/2000/svg">
<path d="M0.25 7.93621V6.90496C0.249963 6.45385 0.34858 6.00819 0.538939 5.59921C0.729298 5.19023 1.00679 4.82783 1.35198 4.5374C1.69716 4.24698 2.10169 4.03555 2.5372 3.91794C2.97271 3.80034 3.42867 3.7794 3.87313 3.85659C4.16241 2.85297 4.77018 1.97062 5.60477 1.34262C6.43936 0.714612 7.45552 0.375 8.5 0.375C9.54448 0.375 10.5606 0.714612 11.3952 1.34262C12.2298 1.97062 12.8376 2.85297 13.1269 3.85659C13.5713 3.7794 14.0273 3.80034 14.4628 3.91794C14.8983 4.03555 15.3028 4.24698 15.648 4.5374C15.9932 4.82783 16.2707 5.19023 16.4611 5.59921C16.6514 6.00819 16.75 6.45385 16.75 6.90496V7.93621C16.7503 10.0054 15.973 11.9992 14.5722 13.5222C13.1715 15.0453 11.2495 15.9863 9.1875 16.1587V18.2487H7.8125V16.1587C5.75047 15.9863 3.82852 15.0453 2.42776 13.5222C1.02699 11.9992 0.2497 10.0054 0.25 7.93621ZM6.41825 7.24734H10.5817C10.5206 6.70251 10.6056 6.15123 10.8279 5.65007C11.0502 5.14892 11.4018 4.71595 11.8468 4.39559C11.6687 3.64176 11.2413 2.97013 10.6339 2.4895C10.0265 2.00886 9.27458 1.74736 8.5 1.74736C7.72542 1.74736 6.97353 2.00886 6.36612 2.4895C5.7587 2.97013 5.33134 3.64176 5.15325 4.39559C5.59838 4.71607 5.95017 5.14926 6.17248 5.65068C6.3948 6.1521 6.47962 6.70366 6.41825 7.24871V7.24734ZM4.85213 7.24734C4.90311 7.02099 4.90253 6.78607 4.85042 6.55998C4.79831 6.33389 4.69601 6.12242 4.55109 5.94123C4.40617 5.76004 4.22235 5.61376 4.01324 5.51324C3.80413 5.41272 3.57508 5.36053 3.34306 5.36053C3.11104 5.36053 2.882 5.41272 2.67289 5.51324C2.46378 5.61376 2.27995 5.76004 2.13504 5.94123C1.99012 6.12242 1.88782 6.33389 1.83571 6.55998C1.7836 6.78607 1.78301 7.02099 1.834 7.24734H4.85213ZM12.1479 7.24734H15.1646C15.2156 7.02099 15.215 6.78607 15.1629 6.55998C15.1108 6.33389 15.0085 6.12242 14.8636 5.94123C14.7187 5.76004 14.5349 5.61376 14.3257 5.51324C14.1166 5.41272 13.8876 5.36053 13.6556 5.36053C13.4235 5.36053 13.1945 5.41272 12.9854 5.51324C12.7763 5.61376 12.5925 5.76004 12.4475 5.94123C12.3026 6.12242 12.2003 6.33389 12.1482 6.55998C12.0961 6.78607 12.0955 7.02099 12.1465 7.24734H12.1479ZM8.5 14.8112C10.2046 14.8112 11.8483 14.178 13.1124 13.0344C14.3764 11.8908 15.1705 10.3184 15.3406 8.62234H1.65938C1.82949 10.3184 2.62361 11.8908 3.88763 13.0344C5.15165 14.178 6.79543 14.8112 8.5 14.8112ZM5.75 18.2501H11.25C11.4323 18.2501 11.6072 18.3225 11.7361 18.4515C11.8651 18.5804 11.9375 18.7553 11.9375 18.9376C11.9375 19.1199 11.8651 19.2948 11.7361 19.4237C11.6072 19.5527 11.4323 19.6251 11.25 19.6251H5.75C5.56766 19.6251 5.3928 19.5527 5.26386 19.4237C5.13493 19.2948 5.0625 19.1199 5.0625 18.9376C5.0625 18.7553 5.13493 18.5804 5.26386 18.4515C5.3928 18.3225 5.56766 18.2501 5.75 18.2501Z" fill="#92000A"/>
</svg>
