<svg width="14" height="13" viewBox="0 0 14 13" fill="none" xmlns="http://www.w3.org/2000/svg">
<path d="M12.6 0.899902H1.4C0.63 0.899902 0 1.5299 0 2.2999V10.6999C0 11.4699 0.63 12.0999 1.4 12.0999H12.6C13.37 12.0999 14 11.4699 14 10.6999V2.2999C14 1.5299 13.37 0.899902 12.6 0.899902ZM12.32 3.8749L7.742 6.7379C7.287 7.0249 6.713 7.0249 6.258 6.7379L1.68 3.8749C1.60981 3.8355 1.54834 3.78227 1.49932 3.71842C1.4503 3.65457 1.41474 3.58145 1.3948 3.50346C1.37486 3.42548 1.37095 3.34426 1.38331 3.26472C1.39567 3.18518 1.42404 3.10897 1.4667 3.04071C1.50936 2.97245 1.56543 2.91356 1.63151 2.8676C1.69759 2.82164 1.77231 2.78956 1.85115 2.77331C1.92998 2.75706 2.0113 2.75698 2.09017 2.77307C2.16904 2.78915 2.24382 2.82108 2.31 2.8669L7 5.7999L11.69 2.8669C11.7562 2.82108 11.831 2.78915 11.9098 2.77307C11.9887 2.75698 12.07 2.75706 12.1489 2.77331C12.2277 2.78956 12.3024 2.82164 12.3685 2.8676C12.4346 2.91356 12.4906 2.97245 12.5333 3.04071C12.576 3.10897 12.6043 3.18518 12.6167 3.26472C12.629 3.34426 12.6251 3.42548 12.6052 3.50346C12.5853 3.58145 12.5497 3.65457 12.5007 3.71842C12.4517 3.78227 12.3902 3.8355 12.32 3.8749Z" fill="#F2F7F2"/>
</svg>
