<svg width="36" height="25" viewBox="0 0 36 25" fill="none" xmlns="http://www.w3.org/2000/svg">
<path d="M14.5 3.5H25.7V5.5H14.5V3.5Z" fill="#670029"/>
<path d="M14.5 7.5H25.7V9.5H14.5V7.5Z" fill="#670029"/>
<path d="M14.5 10.5H25.7V12.5H14.5V10.5Z" fill="#670029"/>
<path d="M14.5 14.5H25.7V16.5H14.5V14.5Z" fill="#670029"/>
<path d="M14.5 18.5H25.7V20.5H14.5V18.5Z" fill="#670029"/>
<path d="M10.3 3.5H13.1V5.5H10.3V3.5Z" fill="#670029"/>
<path d="M10.3 7.5H13.1V9.5H10.3V7.5Z" fill="#670029"/>
<path d="M10.3 10.5H13.1V12.5H10.3V10.5Z" fill="#670029"/>
<path d="M10.3 14.5H13.1V16.5H10.3V14.5Z" fill="#670029"/>
<path d="M10.3 18.5H13.1V20.5H10.3V18.5Z" fill="#670029"/>
<path d="M29.4333 1.38867H8.43325C7.8763 1.38867 7.34215 1.535 6.94833 1.79547C6.5545 2.05594 6.33325 2.4092 6.33325 2.77756V22.222C6.33325 22.5904 6.5545 22.9436 6.94833 23.2041C7.34215 23.4646 7.8763 23.6109 8.43325 23.6109H29.4333C29.9902 23.6109 30.5243 23.4646 30.9182 23.2041C31.312 22.9436 31.5333 22.5904 31.5333 22.222V2.77756C31.5333 2.4092 31.312 2.05594 30.9182 1.79547C30.5243 1.535 29.9902 1.38867 29.4333 1.38867ZM29.4333 22.222H8.43325V2.77756H29.4333V22.222Z" fill="#670029"/>
</svg>
