<svg width="13" height="19" viewBox="0 0 13 19" fill="none" xmlns="http://www.w3.org/2000/svg">
<mask id="mask0_929_523" style="mask-type:luminance" maskUnits="userSpaceOnUse" x="0" y="-1" width="13" height="20">
<path d="M6.49999 16.2292C6.49999 16.2292 10.8542 11.9542 10.8542 7.32291C10.8542 4.37173 8.90466 1.97916 6.49999 1.97916C4.09533 1.97916 2.14583 4.37173 2.14583 7.32291C2.14583 11.9542 6.49999 16.2292 6.49999 16.2292Z" fill="white" stroke="white" stroke-width="4" stroke-linejoin="round"/>
<path d="M6.49998 9C6.82829 9 7.15338 8.93534 7.45669 8.8097C7.76001 8.68406 8.03561 8.49991 8.26775 8.26777C8.4999 8.03562 8.68405 7.76002 8.80968 7.45671C8.93532 7.15339 8.99998 6.8283 8.99998 6.5C8.99998 6.1717 8.93532 5.84661 8.80968 5.54329C8.68405 5.23998 8.4999 4.96438 8.26775 4.73223C8.03561 4.50009 7.76001 4.31594 7.45669 4.1903C7.15338 4.06466 6.82829 4 6.49998 4C5.83694 4 5.20106 4.26339 4.73222 4.73223C4.26338 5.20107 3.99998 5.83696 3.99998 6.5C3.99998 7.16304 4.26338 7.79893 4.73222 8.26777C5.20106 8.73661 5.83694 9 6.49998 9Z" fill="black"/>
</mask>
<g mask="url(#mask0_929_523)">
<path d="M-3 0H16V19H-3V0Z" fill="#F2F7F2"/>
</g>
</svg>
