<svg width="22" height="26" viewBox="0 0 22 26" fill="none" xmlns="http://www.w3.org/2000/svg">
<path fill-rule="evenodd" clip-rule="evenodd" d="M0.719867 9.92828C0.927226 7.41526 2.07192 5.07207 3.92671 3.36385C5.78151 1.65563 8.2108 0.707275 10.7324 0.707031H11.2724C13.7939 0.707275 16.2232 1.65563 18.078 3.36385C19.9328 5.07207 21.0775 7.41526 21.2849 9.92828C21.5165 12.7339 20.6503 15.5199 18.8686 17.6995L12.8774 25.027C12.6503 25.305 12.3643 25.5289 12.04 25.6827C11.7157 25.8366 11.3613 25.9163 11.0024 25.9163C10.6435 25.9163 10.289 25.8366 9.96476 25.6827C9.64048 25.5289 9.35445 25.305 9.12737 25.027L3.13737 17.6995C1.35525 15.5201 0.488562 12.7341 0.719867 9.92828ZM11.0024 5.39453C9.42764 5.39453 7.91742 6.02009 6.80392 7.13358C5.69042 8.24708 5.06487 9.75731 5.06487 11.332C5.06487 12.9068 5.69042 14.417 6.80392 15.5305C7.91742 16.644 9.42764 17.2695 11.0024 17.2695C12.5771 17.2695 14.0873 16.644 15.2008 15.5305C16.3143 14.417 16.9399 12.9068 16.9399 11.332C16.9399 9.75731 16.3143 8.24708 15.2008 7.13358C14.0873 6.02009 12.5771 5.39453 11.0024 5.39453Z" fill="#311432"/>
</svg>
