<svg width="18" height="21" viewBox="0 0 18 21" fill="none" xmlns="http://www.w3.org/2000/svg">
<path fill-rule="evenodd" clip-rule="evenodd" d="M14.5533 14.438C14.7723 14.3285 15.0239 14.3031 15.2604 14.3667C15.4969 14.4303 15.7018 14.5784 15.8363 14.783L15.8943 14.885L17.8943 18.885C17.9657 19.0277 18.0019 19.1853 17.9999 19.3448C17.9979 19.5043 17.9578 19.661 17.883 19.8018C17.8081 19.9427 17.7006 20.0636 17.5695 20.1544C17.4384 20.2452 17.2875 20.3034 17.1293 20.324L17.0003 20.332H1.00032C0.840792 20.3321 0.683565 20.294 0.541769 20.2209C0.399974 20.1478 0.277725 20.0418 0.185231 19.9118C0.0927381 19.7818 0.0326845 19.6316 0.0100851 19.4737C-0.0125143 19.3158 0.00299652 19.1547 0.0553224 19.004L0.105322 18.884L2.10532 14.884C2.21742 14.6523 2.41455 14.4728 2.65568 14.3827C2.89681 14.2927 3.16338 14.2991 3.39991 14.4006C3.63644 14.5021 3.82472 14.6909 3.92557 14.9278C4.02641 15.1646 4.03205 15.4312 3.94132 15.672L3.89432 15.779L2.61832 18.332H15.3823L14.1063 15.779C13.9879 15.5419 13.9685 15.2675 14.0523 15.016C14.1361 14.7646 14.3163 14.5567 14.5533 14.438ZM9.00032 0.332031C10.8568 0.332031 12.6373 1.06953 13.9501 2.38228C15.2628 3.69504 16.0003 5.47552 16.0003 7.33203C16.0003 9.71403 14.7113 11.649 13.3773 13.022C12.6404 13.7705 11.8304 14.4432 10.9593 15.03L10.5863 15.276L10.2543 15.485C10.2023 15.516 10.1523 15.545 10.1053 15.575L9.84832 15.723C9.32032 16.023 8.68032 16.023 8.15232 15.723L7.89532 15.574L7.58532 15.385C7.52811 15.349 7.47111 15.3127 7.41432 15.276L7.04132 15.03C6.17027 14.4432 5.36022 13.7705 4.62332 13.022C3.28932 11.649 2.00032 9.71403 2.00032 7.33203C2.00032 5.47552 2.73782 3.69504 4.05057 2.38228C5.36333 1.06953 7.14381 0.332031 9.00032 0.332031ZM9.00032 5.33203C8.46989 5.33203 7.96118 5.54274 7.58611 5.91782C7.21104 6.29289 7.00032 6.8016 7.00032 7.33203C7.00032 7.86246 7.21104 8.37117 7.58611 8.74624C7.96118 9.12132 8.46989 9.33203 9.00032 9.33203C9.53076 9.33203 10.0395 9.12132 10.4145 8.74624C10.7896 8.37117 11.0003 7.86246 11.0003 7.33203C11.0003 6.8016 10.7896 6.29289 10.4145 5.91782C10.0395 5.54274 9.53076 5.33203 9.00032 5.33203Z" fill="#B22222"/>
</svg>
