<svg width="20" height="18" viewBox="0 0 20 18" fill="none" xmlns="http://www.w3.org/2000/svg">
<path d="M7.14492 4.12643L7.14635 3.04931C7.14711 2.32839 7.44845 1.63725 7.98416 1.12774C8.51987 0.618228 9.24612 0.332031 10.0034 0.332031C11.5776 0.332031 12.8532 1.54651 12.8532 3.04523V4.12371C15.1538 4.77645 17.1311 6.19503 18.4243 8.12053C19.7174 10.046 20.2402 12.35 19.8971 14.612H0.102414C-0.240038 12.3508 0.282677 10.0478 1.57522 8.12289C2.86776 6.19803 4.84401 4.77964 7.14349 4.12643H7.14492ZM0.715241 15.972H19.2857C19.4752 15.972 19.6569 16.0437 19.7908 16.1712C19.9247 16.2987 20 16.4717 20 16.652C20 16.8324 19.9247 17.0053 19.7908 17.1329C19.6569 17.2604 19.4752 17.332 19.2857 17.332H0.715241C0.52581 17.332 0.344137 17.2604 0.210189 17.1329C0.0762415 17.0053 0.000990368 16.8324 0.000990368 16.652C0.000990368 16.4717 0.0762415 16.2987 0.210189 16.1712C0.344137 16.0437 0.52581 15.972 0.715241 15.972ZM1.42949 13.252H18.5715C18.5715 12.1804 18.3498 11.1194 17.9191 10.1293C17.4883 9.13932 16.857 8.23977 16.0611 7.48204C15.2652 6.72431 14.3204 6.12325 13.2805 5.71317C12.2406 5.3031 11.1261 5.09203 10.0005 5.09203C8.87493 5.09203 7.7604 5.3031 6.72051 5.71317C5.68063 6.12325 4.73577 6.72431 3.93988 7.48204C3.14399 8.23977 2.51265 9.13932 2.08192 10.1293C1.65119 11.1194 1.42949 12.1804 1.42949 13.252ZM11.4247 3.73203V3.04523C11.4247 2.68634 11.275 2.34215 11.0084 2.08837C10.7418 1.8346 10.3803 1.69203 10.0034 1.69203C9.62474 1.69203 9.26161 1.83513 8.99375 2.08989C8.7259 2.34464 8.57523 2.69021 8.57485 3.05067V3.73203H11.4247Z" fill="#92000A"/>
</svg>
