<svg width="25" height="26" viewBox="0 0 25 26" fill="none" xmlns="http://www.w3.org/2000/svg">
<path fill-rule="evenodd" clip-rule="evenodd" d="M1.83 23.336C3.6625 25.166 6.6075 25.166 12.5 25.166C18.3925 25.166 21.3387 25.166 23.1688 23.3348C25 21.506 25 18.5585 25 12.666C25 6.77352 25 3.82727 23.1688 1.99602C21.34 0.166016 18.3925 0.166016 12.5 0.166016C6.6075 0.166016 3.66125 0.166016 1.83 1.99602C0 3.82852 0 6.77352 0 12.666C0 18.5585 0 21.506 1.83 23.336ZM20.9375 17.666C20.9375 17.9147 20.8387 18.1531 20.6629 18.3289C20.4871 18.5047 20.2486 18.6035 20 18.6035H5C4.75136 18.6035 4.5129 18.5047 4.33709 18.3289C4.16127 18.1531 4.0625 17.9147 4.0625 17.666C4.0625 17.4174 4.16127 17.1789 4.33709 17.0031C4.5129 16.8273 4.75136 16.7285 5 16.7285H20C20.2486 16.7285 20.4871 16.8273 20.6629 17.0031C20.8387 17.1789 20.9375 17.4174 20.9375 17.666ZM20 13.6035C20.2486 13.6035 20.4871 13.5047 20.6629 13.3289C20.8387 13.1531 20.9375 12.9147 20.9375 12.666C20.9375 12.4174 20.8387 12.1789 20.6629 12.0031C20.4871 11.8273 20.2486 11.7285 20 11.7285H5C4.75136 11.7285 4.5129 11.8273 4.33709 12.0031C4.16127 12.1789 4.0625 12.4174 4.0625 12.666C4.0625 12.9147 4.16127 13.1531 4.33709 13.3289C4.5129 13.5047 4.75136 13.6035 5 13.6035H20ZM20.9375 7.66602C20.9375 7.91466 20.8387 8.15311 20.6629 8.32893C20.4871 8.50474 20.2486 8.60352 20 8.60352H5C4.75136 8.60352 4.5129 8.50474 4.33709 8.32893C4.16127 8.15311 4.0625 7.91466 4.0625 7.66602C4.0625 7.41738 4.16127 7.17892 4.33709 7.0031C4.5129 6.82729 4.75136 6.72852 5 6.72852H20C20.2486 6.72852 20.4871 6.82729 20.6629 7.0031C20.8387 7.17892 20.9375 7.41738 20.9375 7.66602Z" fill="#311432"/>
</svg>
