<svg width="15" height="15" viewBox="0 0 15 15" fill="none" xmlns="http://www.w3.org/2000/svg">
<path d="M7.49984 14.5833C6.53178 14.5833 5.61685 14.3972 4.75505 14.0251C3.89324 13.653 3.14075 13.1454 2.49759 12.5022C1.85442 11.859 1.34678 11.1066 0.974671 10.2448C0.60256 9.38295 0.416504 8.46802 0.416504 7.49996C0.416504 6.5201 0.608462 5.59927 0.992379 4.73746C1.3763 3.87565 1.89574 3.126 2.55071 2.4885C3.20568 1.851 3.96998 1.34643 4.84359 0.974793C5.7172 0.603154 6.64984 0.417098 7.6415 0.416626C8.58595 0.416626 9.47727 0.57907 10.3155 0.903959C11.1537 1.22885 11.8887 1.67746 12.5205 2.24979C13.1523 2.82213 13.6541 3.50095 14.0257 4.28625C14.3974 5.07156 14.5832 5.91849 14.5832 6.82704C14.5832 8.18468 14.17 9.22664 13.3436 9.95292C12.5172 10.6792 11.5137 11.0421 10.3332 11.0416H9.02275C8.9165 11.0416 8.84284 11.0711 8.80175 11.1302C8.76067 11.1892 8.73989 11.2541 8.73942 11.325C8.73942 11.4666 8.82796 11.6704 9.00505 11.9363C9.18213 12.2021 9.27067 12.506 9.27067 12.8479C9.27067 13.4382 9.10846 13.875 8.78405 14.1583C8.45963 14.4416 8.03156 14.5833 7.49984 14.5833ZM3.604 8.20829C3.91095 8.20829 4.16477 8.10795 4.36546 7.90725C4.56616 7.70656 4.6665 7.45274 4.6665 7.14579C4.6665 6.83885 4.56616 6.58503 4.36546 6.38433C4.16477 6.18364 3.91095 6.08329 3.604 6.08329C3.29706 6.08329 3.04324 6.18364 2.84255 6.38433C2.64185 6.58503 2.5415 6.83885 2.5415 7.14579C2.5415 7.45274 2.64185 7.70656 2.84255 7.90725C3.04324 8.10795 3.29706 8.20829 3.604 8.20829ZM5.729 5.37496C6.03595 5.37496 6.28977 5.27461 6.49046 5.07392C6.69116 4.87322 6.7915 4.6194 6.7915 4.31246C6.7915 4.00552 6.69116 3.7517 6.49046 3.551C6.28977 3.35031 6.03595 3.24996 5.729 3.24996C5.42206 3.24996 5.16824 3.35031 4.96755 3.551C4.76685 3.7517 4.6665 4.00552 4.6665 4.31246C4.6665 4.6194 4.76685 4.87322 4.96755 5.07392C5.16824 5.27461 5.42206 5.37496 5.729 5.37496ZM9.27067 5.37496C9.57762 5.37496 9.83143 5.27461 10.0321 5.07392C10.2328 4.87322 10.3332 4.6194 10.3332 4.31246C10.3332 4.00552 10.2328 3.7517 10.0321 3.551C9.83143 3.35031 9.57762 3.24996 9.27067 3.24996C8.96373 3.24996 8.70991 3.35031 8.50921 3.551C8.30852 3.7517 8.20817 4.00552 8.20817 4.31246C8.20817 4.6194 8.30852 4.87322 8.50921 5.07392C8.70991 5.27461 8.96373 5.37496 9.27067 5.37496ZM11.3957 8.20829C11.7026 8.20829 11.9564 8.10795 12.1571 7.90725C12.3578 7.70656 12.4582 7.45274 12.4582 7.14579C12.4582 6.83885 12.3578 6.58503 12.1571 6.38433C11.9564 6.18364 11.7026 6.08329 11.3957 6.08329C11.0887 6.08329 10.8349 6.18364 10.6342 6.38433C10.4335 6.58503 10.3332 6.83885 10.3332 7.14579C10.3332 7.45274 10.4335 7.70656 10.6342 7.90725C10.8349 8.10795 11.0887 8.20829 11.3957 8.20829Z" fill="#F2F7F2"/>
</svg>
