<svg width="9" height="12" viewBox="0 0 9 12" fill="none" xmlns="http://www.w3.org/2000/svg">
<path d="M4.11995 8.80091C4.39248 8.80091 4.65385 8.69268 4.84656 8.50002C5.03926 8.30737 5.14753 8.04607 5.14753 7.77361C5.14753 7.50116 5.03926 7.23986 4.84656 7.0472C4.65385 6.85455 4.39248 6.74631 4.11995 6.74631C3.84742 6.74631 3.58606 6.85455 3.39335 7.0472C3.20064 7.23986 3.09238 7.50116 3.09238 7.77361C3.09238 8.04607 3.20064 8.30737 3.39335 8.50002C3.58606 8.69268 3.84742 8.80091 4.11995 8.80091ZM7.20267 4.17807C7.4752 4.17807 7.73657 4.2863 7.92928 4.47895C8.12198 4.67161 8.23025 4.93291 8.23025 5.20536V10.3419C8.23025 10.6143 8.12198 10.8756 7.92928 11.0683C7.73657 11.2609 7.4752 11.3692 7.20267 11.3692H1.03723C0.764703 11.3692 0.503335 11.2609 0.310628 11.0683C0.117921 10.8756 0.00965881 10.6143 0.00965881 10.3419V5.20536C0.00965881 4.93291 0.117921 4.67161 0.310628 4.47895C0.503335 4.2863 0.764703 4.17807 1.03723 4.17807H1.55102V3.15077C1.55102 2.46963 1.82167 1.81638 2.30344 1.33474C2.78521 0.853102 3.43863 0.58252 4.11995 0.58252C4.45731 0.58252 4.79136 0.648949 5.10304 0.778016C5.41472 0.907082 5.69792 1.09626 5.93646 1.33474C6.17501 1.57323 6.36424 1.85635 6.49334 2.16794C6.62244 2.47954 6.68889 2.8135 6.68889 3.15077V4.17807H7.20267ZM4.11995 1.60982C3.71116 1.60982 3.31911 1.77217 3.03005 2.06115C2.74099 2.35014 2.57859 2.74208 2.57859 3.15077V4.17807H5.66131V3.15077C5.66131 2.74208 5.49892 2.35014 5.20986 2.06115C4.9208 1.77217 4.52875 1.60982 4.11995 1.60982Z" fill="#670029"/>
</svg>
