<svg width="16" height="16" viewBox="0 0 16 16" fill="none" xmlns="http://www.w3.org/2000/svg">
<path d="M15 3.99995C15 3.46952 14.7893 2.96081 14.4142 2.58574C14.0391 2.21067 13.5304 1.99995 13 1.99995H12.5V1.51402C12.5 1.24495 12.2931 1.01402 12.0241 1.00058C11.9565 0.997322 11.8889 1.00782 11.8255 1.03145C11.762 1.05508 11.7041 1.09133 11.6551 1.13802C11.6061 1.18471 11.5671 1.24087 11.5404 1.30308C11.5138 1.36529 11.5 1.43227 11.5 1.49995V1.99995H4.5V1.51402C4.5 1.24495 4.29313 1.01402 4.02406 1.00058C3.95646 0.997322 3.8889 1.00782 3.82547 1.03145C3.76204 1.05508 3.70407 1.09133 3.65508 1.13802C3.60608 1.18471 3.56707 1.24087 3.54041 1.30308C3.51375 1.36529 3.50001 1.43227 3.5 1.49995V1.99995H3C2.46957 1.99995 1.96086 2.21067 1.58579 2.58574C1.21071 2.96081 1 3.46952 1 3.99995V4.37495C1 4.40811 1.01317 4.4399 1.03661 4.46334C1.06005 4.48678 1.09185 4.49995 1.125 4.49995H14.875C14.9082 4.49995 14.9399 4.48678 14.9634 4.46334C14.9868 4.4399 15 4.40811 15 4.37495V3.99995ZM1 13C1 13.5304 1.21071 14.0391 1.58579 14.4142C1.96086 14.7892 2.46957 15 3 15H13C13.5304 15 14.0391 14.7892 14.4142 14.4142C14.7893 14.0391 15 13.5304 15 13V5.5937C15 5.56884 14.9901 5.54499 14.9725 5.52741C14.955 5.50983 14.9311 5.49995 14.9062 5.49995H1.09375C1.06889 5.49995 1.04504 5.50983 1.02746 5.52741C1.00988 5.54499 1 5.56884 1 5.5937V13ZM11.75 6.49995C11.8983 6.49995 12.0433 6.54394 12.1667 6.62635C12.29 6.70876 12.3861 6.8259 12.4429 6.96294C12.4997 7.09999 12.5145 7.25079 12.4856 7.39627C12.4566 7.54176 12.3852 7.6754 12.2803 7.78028C12.1754 7.88517 12.0418 7.9566 11.8963 7.98554C11.7508 8.01448 11.6 7.99963 11.463 7.94286C11.3259 7.8861 11.2088 7.78997 11.1264 7.66663C11.044 7.54329 11 7.39829 11 7.24995C11 7.05104 11.079 6.86028 11.2197 6.71962C11.3603 6.57897 11.5511 6.49995 11.75 6.49995ZM11.75 8.99995C11.8983 8.99995 12.0433 9.04394 12.1667 9.12635C12.29 9.20876 12.3861 9.3259 12.4429 9.46294C12.4997 9.59999 12.5145 9.75079 12.4856 9.89627C12.4566 10.0418 12.3852 10.1754 12.2803 10.2803C12.1754 10.3852 12.0418 10.4566 11.8963 10.4855C11.7508 10.5145 11.6 10.4996 11.463 10.4429C11.3259 10.3861 11.2088 10.29 11.1264 10.1666C11.044 10.0433 11 9.89829 11 9.74995C11 9.55104 11.079 9.36028 11.2197 9.21962C11.3603 9.07897 11.5511 8.99995 11.75 8.99995ZM9.25 6.49995C9.39834 6.49995 9.54334 6.54394 9.66668 6.62635C9.79001 6.70876 9.88614 6.8259 9.94291 6.96294C9.99967 7.09999 10.0145 7.25079 9.98559 7.39627C9.95665 7.54176 9.88522 7.6754 9.78033 7.78028C9.67544 7.88517 9.5418 7.9566 9.39632 7.98554C9.25083 8.01448 9.10003 7.99963 8.96299 7.94286C8.82594 7.8861 8.70881 7.78997 8.6264 7.66663C8.54399 7.54329 8.5 7.39829 8.5 7.24995C8.5 7.05104 8.57902 6.86028 8.71967 6.71962C8.86032 6.57897 9.05109 6.49995 9.25 6.49995ZM9.25 8.99995C9.39834 8.99995 9.54334 9.04394 9.66668 9.12635C9.79001 9.20876 9.88614 9.3259 9.94291 9.46294C9.99967 9.59999 10.0145 9.75079 9.98559 9.89627C9.95665 10.0418 9.88522 10.1754 9.78033 10.2803C9.67544 10.3852 9.5418 10.4566 9.39632 10.4855C9.25083 10.5145 9.10003 10.4996 8.96299 10.4429C8.82594 10.3861 8.70881 10.29 8.6264 10.1666C8.54399 10.0433 8.5 9.89829 8.5 9.74995C8.5 9.55104 8.57902 9.36028 8.71967 9.21962C8.86032 9.07897 9.05109 8.99995 9.25 8.99995ZM9.25 11.5C9.39834 11.5 9.54334 11.5439 9.66668 11.6264C9.79001 11.7088 9.88614 11.8259 9.94291 11.9629C9.99967 12.1 10.0145 12.2508 9.98559 12.3963C9.95665 12.5418 9.88522 12.6754 9.78033 12.7803C9.67544 12.8852 9.5418 12.9566 9.39632 12.9855C9.25083 13.0145 9.10003 12.9996 8.96299 12.9429C8.82594 12.8861 8.70881 12.79 8.6264 12.6666C8.54399 12.5433 8.5 12.3983 8.5 12.25C8.5 12.051 8.57902 11.8603 8.71967 11.7196C8.86032 11.579 9.05109 11.5 9.25 11.5ZM6.75 8.99995C6.89834 8.99995 7.04334 9.04394 7.16668 9.12635C7.29001 9.20876 7.38614 9.3259 7.44291 9.46294C7.49968 9.59999 7.51453 9.75079 7.48559 9.89627C7.45665 10.0418 7.38522 10.1754 7.28033 10.2803C7.17544 10.3852 7.0418 10.4566 6.89632 10.4855C6.75083 10.5145 6.60003 10.4996 6.46299 10.4429C6.32594 10.3861 6.20881 10.29 6.1264 10.1666C6.04399 10.0433 6 9.89829 6 9.74995C6 9.55104 6.07902 9.36028 6.21967 9.21962C6.36032 9.07897 6.55109 8.99995 6.75 8.99995ZM6.75 11.5C6.89834 11.5 7.04334 11.5439 7.16668 11.6264C7.29001 11.7088 7.38614 11.8259 7.44291 11.9629C7.49968 12.1 7.51453 12.2508 7.48559 12.3963C7.45665 12.5418 7.38522 12.6754 7.28033 12.7803C7.17544 12.8852 7.0418 12.9566 6.89632 12.9855C6.75083 13.0145 6.60003 12.9996 6.46299 12.9429C6.32594 12.8861 6.20881 12.79 6.1264 12.6666C6.04399 12.5433 6 12.3983 6 12.25C6 12.051 6.07902 11.8603 6.21967 11.7196C6.36032 11.579 6.55109 11.5 6.75 11.5ZM4.25 8.99995C4.39834 8.99995 4.54334 9.04394 4.66668 9.12635C4.79001 9.20876 4.88614 9.3259 4.94291 9.46294C4.99968 9.59999 5.01453 9.75079 4.98559 9.89627C4.95665 10.0418 4.88522 10.1754 4.78033 10.2803C4.67544 10.3852 4.5418 10.4566 4.39632 10.4855C4.25083 10.5145 4.10003 10.4996 3.96299 10.4429C3.82594 10.3861 3.70881 10.29 3.6264 10.1666C3.54399 10.0433 3.5 9.89829 3.5 9.74995C3.5 9.55104 3.57902 9.36028 3.71967 9.21962C3.86032 9.07897 4.05109 8.99995 4.25 8.99995ZM4.25 11.5C4.39834 11.5 4.54334 11.5439 4.66668 11.6264C4.79001 11.7088 4.88614 11.8259 4.94291 11.9629C4.99968 12.1 5.01453 12.2508 4.98559 12.3963C4.95665 12.5418 4.88522 12.6754 4.78033 12.7803C4.67544 12.8852 4.5418 12.9566 4.39632 12.9855C4.25083 13.0145 4.10003 12.9996 3.96299 12.9429C3.82594 12.8861 3.70881 12.79 3.6264 12.6666C3.54399 12.5433 3.5 12.3983 3.5 12.25C3.5 12.051 3.57902 11.8603 3.71967 11.7196C3.86032 11.579 4.05109 11.5 4.25 11.5Z" fill="#B22222"/>
</svg>
