<svg width="16" height="16" viewBox="0 0 16 16" fill="none" xmlns="http://www.w3.org/2000/svg">
<path d="M11.3334 2.22627C12.3468 2.8114 13.1884 3.65299 13.7736 4.66646C14.3587 5.67993 14.6667 6.82956 14.6667 7.99981C14.6667 9.17007 14.3586 10.3197 13.7735 11.3332C13.1884 12.3466 12.3468 13.1882 11.3333 13.7733C10.3198 14.3584 9.17019 14.6665 7.99993 14.6664C6.82968 14.6664 5.68005 14.3584 4.6666 13.7732C3.65314 13.1881 2.81157 12.3465 2.22646 11.333C1.64136 10.3195 1.33334 9.16985 1.33337 7.9996L1.33671 7.7836C1.37404 6.63226 1.70907 5.51024 2.30913 4.52693C2.90919 3.54362 3.75381 2.73257 4.76064 2.17286C5.76746 1.61314 6.90214 1.32387 8.05404 1.33323C9.20595 1.34259 10.3358 1.65027 11.3334 2.22627ZM8.00004 3.9996C7.82323 3.9996 7.65366 4.06984 7.52864 4.19487C7.40361 4.31989 7.33337 4.48946 7.33337 4.66627V7.9996C7.33337 8.17641 7.40361 8.34598 7.52864 8.47101C7.65366 8.59603 7.82323 8.66627 8.00004 8.66627H10.3334C10.5102 8.66627 10.6798 8.59603 10.8048 8.47101C10.9298 8.34598 11 8.17641 11 7.9996C11 7.82279 10.9298 7.65322 10.8048 7.5282C10.6798 7.40317 10.5102 7.33294 10.3334 7.33294H8.66671V4.66627C8.66669 4.50298 8.60674 4.34538 8.49823 4.22336C8.38972 4.10133 8.24021 4.02337 8.07804 4.00427L8.00004 3.9996Z" fill="#B22222"/>
</svg>
