<svg width="18" height="18" viewBox="0 0 18 18" fill="none" xmlns="http://www.w3.org/2000/svg">
<g clip-path="url(#clip0_929_516)">
<path d="M12.048 7.87289H12.5708C12.9404 7.87391 13.3065 7.80159 13.6479 7.66014C13.9894 7.51869 14.2994 7.31091 14.56 7.04883L17.4375 4.14844L16.6563 3.36094L13.718 6.2993L13.1073 5.68863L16.0457 2.74992L15.2371 1.96559L12.3096 4.8927L11.7007 4.28203L14.6391 1.34332L13.8516 0.5625L10.9512 3.44004C10.6891 3.70068 10.4813 4.01072 10.3398 4.35222C10.1984 4.69372 10.1261 5.0599 10.1271 5.42953V5.95195L8.61082 7.46824L1.6875 0.5625C0.130777 2.49152 1.05011 6.03668 2.80265 7.78957L5.80851 10.7954C6.74191 11.7288 6.92718 11.8121 7.98609 11.3861C8.21425 11.2943 8.29722 11.3045 8.50992 11.5168L8.96695 11.9433C9.06996 12.0487 9.07242 12.0797 9.07242 12.2815V12.4762C9.07242 13.2173 9.54632 13.6434 9.85851 13.9613L13.5 17.4375L16.0312 14.9062L10.5318 9.38918L12.048 7.87289Z" fill="#F2F7F2"/>
<path d="M7.99348 12.466C6.94512 12.6808 6.30211 12.8788 5.0727 11.6494C5.05301 11.6297 5.03262 11.6107 5.01293 11.591L4.32738 10.9055L0.5625 14.625L3.375 17.4375L8.4375 12.375L7.99348 12.466Z" fill="#F2F7F2"/>
</g>
<defs>
<clipPath id="clip0_929_516">
<rect width="18" height="18" fill="white"/>
</clipPath>
</defs>
</svg>
