<svg width="20" height="20" viewBox="0 0 20 20" fill="none" xmlns="http://www.w3.org/2000/svg">
<path d="M4.5 19H14.5M9.5 19C11.8869 19 14.1761 18.0518 15.864 16.364C17.5518 14.6761 18.5 12.3869 18.5 10H0.5C0.5 12.3869 1.44821 14.6761 3.13604 16.364C4.82387 18.0518 7.11305 19 9.5 19Z" stroke="#92000A" stroke-linecap="round" stroke-linejoin="round"/>
<path d="M8.88001 9.99997C8.27438 10.0056 7.689 9.78207 7.24129 9.37416C6.79358 8.96626 6.51665 8.40417 6.46604 7.80063C6.41543 7.19708 6.59488 6.59672 6.9684 6.11995C7.34193 5.64318 7.8819 5.32527 8.48001 5.22997C8.38425 4.8062 8.40532 4.36438 8.54096 3.95164C8.67661 3.5389 8.92175 3.17072 9.25023 2.88638C9.57872 2.60203 9.97823 2.41219 10.4061 2.33709C10.8341 2.262 11.2743 2.30446 11.68 2.45997C11.8576 2.18033 12.0913 1.9405 12.3661 1.75557C12.641 1.57064 12.9512 1.44462 13.2771 1.38544C13.6031 1.32626 13.9378 1.3352 14.2601 1.41171C14.5824 1.48821 14.8854 1.63062 15.15 1.82997C15.6116 1.46719 16.1901 1.28617 16.7761 1.32116C17.3621 1.35615 17.915 1.60472 18.3301 2.01984C18.7453 2.43496 18.9938 2.98783 19.0288 3.57386C19.0638 4.15988 18.8828 4.7384 18.52 5.19997C18.7458 5.4999 18.8981 5.84862 18.9646 6.2181C19.0312 6.58758 19.0101 6.96752 18.9031 7.32738C18.7961 7.68724 18.6062 8.01698 18.3486 8.2901C18.0911 8.56322 17.773 8.77211 17.42 8.89997C17.5113 9.2599 17.5215 9.6356 17.45 9.99997M10.5 9.99997L14.5 5.99997" stroke="#92000A" stroke-linecap="round" stroke-linejoin="round"/>
<path d="M8.40005 5.24997C7.85154 4.66523 7.1396 4.25931 6.35703 4.08509C5.57445 3.91087 4.75754 3.97645 4.01278 4.27328C3.26802 4.5701 2.62995 5.0844 2.18175 5.74915C1.73354 6.41389 1.49599 7.19824 1.50005 7.99997C1.50005 8.72997 1.70005 9.40997 2.04005 9.99997" stroke="#92000A" stroke-linecap="round" stroke-linejoin="round"/>
</svg>
