<svg width="32" height="32" viewBox="0 0 32 32" fill="none" xmlns="http://www.w3.org/2000/svg">
<path d="M9.33333 6.625H4.33333C3.44928 6.625 2.60143 7.02009 1.97631 7.72335C1.35119 8.42661 1 9.38044 1 10.375V27.25C1 28.2446 1.35119 29.1984 1.97631 29.9016C2.60143 30.6049 3.44928 31 4.33333 31H27.6667C28.5507 31 29.3986 30.6049 30.0237 29.9016C30.6488 29.1984 31 28.2446 31 27.25V10.375C31 9.38044 30.6488 8.42661 30.0237 7.72335C29.3986 7.02009 28.5507 6.625 27.6667 6.625H22.6667M21 14.125L16 19.75M16 19.75L11 14.125M16 19.75V1" stroke="#F2F7F2" stroke-width="2" stroke-linecap="round" stroke-linejoin="round"/>
</svg>
