<svg width="22" height="21" viewBox="0 0 22 21" fill="none" xmlns="http://www.w3.org/2000/svg">
<path d="M17 14.625V16.125L15.875 17.25M20.75 1.125L1.25 10.125L10.25 12M20.75 1.125L10.25 12M20.75 1.125L17.4688 9.65625M10.25 12L10.7188 14.1562M20.75 16.125C20.75 17.1196 20.3549 18.0734 19.6517 18.7767C18.9484 19.4799 17.9946 19.875 17 19.875C16.0054 19.875 15.0516 19.4799 14.3483 18.7767C13.6451 18.0734 13.25 17.1196 13.25 16.125C13.25 15.1304 13.6451 14.1766 14.3483 13.4733C15.0516 12.7701 16.0054 12.375 17 12.375C17.9946 12.375 18.9484 12.7701 19.6517 13.4733C20.3549 14.1766 20.75 15.1304 20.75 16.125Z" stroke="#F2F7F2" stroke-width="2" stroke-linecap="round" stroke-linejoin="round"/>
</svg>
