<svg width="25" height="26" viewBox="0 0 25 26" fill="none" xmlns="http://www.w3.org/2000/svg">
<path d="M14.287 20.411L8.42766 4.786C8.35089 4.58123 8.21345 4.40476 8.03371 4.28019C7.85397 4.15561 7.64049 4.08887 7.4218 4.08887C7.20311 4.08887 6.98963 4.15561 6.80989 4.28019C6.63015 4.40476 6.49271 4.58123 6.41594 4.786L0.556564 20.411C0.459654 20.6771 0.471725 20.9707 0.590152 21.2279C0.70858 21.4851 0.923782 21.6852 1.18895 21.7845C1.45412 21.8839 1.74779 21.8746 2.0061 21.7585C2.26441 21.6425 2.46646 21.4291 2.56828 21.1649L4.33391 16.4569C4.34086 16.4383 4.35333 16.4222 4.36964 16.4109C4.38596 16.3996 4.40535 16.3935 4.42522 16.3934H10.4184C10.4383 16.3935 10.4576 16.3996 10.474 16.4109C10.4903 16.4222 10.5027 16.4383 10.5097 16.4569L12.2753 21.1649C12.3771 21.4291 12.5792 21.6425 12.8375 21.7585C13.0958 21.8746 13.3895 21.8839 13.6546 21.7845C13.9198 21.6852 14.135 21.4851 14.2534 21.2279C14.3719 20.9707 14.3839 20.6771 14.287 20.411ZM5.21281 14.1122L7.33049 8.4652C7.33752 8.44667 7.35002 8.43072 7.36633 8.41946C7.38263 8.40821 7.40198 8.40218 7.4218 8.40218C7.44162 8.40218 7.46096 8.40821 7.47727 8.41946C7.49358 8.43072 7.50608 8.44667 7.51311 8.4652L9.63078 14.1131C9.6363 14.1279 9.63816 14.1438 9.63621 14.1594C9.63426 14.175 9.62856 14.19 9.61959 14.2029C9.61061 14.2159 9.59864 14.2265 9.58469 14.2338C9.57074 14.2411 9.55523 14.245 9.53947 14.245H5.30412C5.28837 14.245 5.27285 14.2411 5.2589 14.2338C5.24495 14.2265 5.23298 14.2159 5.22401 14.2029C5.21504 14.19 5.20934 14.175 5.20739 14.1594C5.20544 14.1438 5.2073 14.1279 5.21281 14.1131V14.1122ZM19.5688 8.77624C17.5317 8.76159 15.7074 9.94176 14.9301 11.7743C14.8187 12.0365 14.8161 12.3323 14.9228 12.5964C15.0295 12.8606 15.2367 13.0716 15.4989 13.183C15.7612 13.2943 16.0569 13.297 16.3211 13.1903C16.5853 13.0836 16.7963 12.8764 16.9076 12.6141C17.3412 11.5941 18.3613 10.9325 19.5112 10.9247C21.0893 10.9139 22.3632 12.2186 22.3632 13.7982C22.3632 13.8172 22.3558 13.8355 22.3426 13.8492C22.3294 13.8628 22.3114 13.8708 22.2924 13.8715C21.2221 13.9012 19.9526 13.9725 18.8197 14.1058C16.1464 14.4203 14.5507 15.8778 14.5507 18.0048C14.5507 19.1371 14.9784 20.1532 15.7553 20.87C16.4843 21.5414 17.4804 21.911 18.5546 21.911C20.0683 21.911 21.3715 21.5204 22.3603 20.7772H22.3632C22.3626 20.9183 22.3898 21.0581 22.4432 21.1887C22.4966 21.3192 22.5752 21.438 22.6746 21.5382C22.7739 21.6383 22.892 21.718 23.0221 21.7725C23.1521 21.8271 23.2917 21.8555 23.4328 21.8561C23.5739 21.8567 23.7137 21.8295 23.8442 21.7761C23.9748 21.7227 24.0935 21.644 24.1937 21.5447C24.2939 21.4454 24.3736 21.3273 24.4281 21.1972C24.4826 21.0671 24.511 20.9276 24.5116 20.7865V13.8041C24.5116 11.0609 22.3144 8.79626 19.5688 8.77624ZM18.5546 19.7626C17.6987 19.7626 16.6991 19.3021 16.6991 18.0048C16.6991 17.4838 16.8862 17.119 17.3061 16.8216C17.7148 16.5321 18.3412 16.3256 19.0707 16.2396C20.102 16.118 21.2592 16.0511 22.2514 16.0214C22.2646 16.0213 22.2777 16.024 22.2899 16.0292C22.3021 16.0344 22.3131 16.0421 22.3222 16.0517C22.3314 16.0613 22.3385 16.0726 22.3431 16.085C22.3477 16.0974 22.3497 16.1107 22.349 16.1239C22.2167 18.5712 20.9697 19.7626 18.5546 19.7626Z" fill="#B22222"/>
</svg>
