<svg width="12" height="13" viewBox="0 0 12 13" fill="none" xmlns="http://www.w3.org/2000/svg">
<path d="M7.68656 8.15965C7.61117 8.135 7.13466 7.92021 7.43242 7.01508H7.42816C8.20432 6.21569 8.79747 4.92935 8.79747 3.66293C8.79747 1.71564 7.5026 0.694824 5.99768 0.694824C4.49182 0.694824 3.20406 1.71517 3.20406 3.66293C3.20406 4.93457 3.79389 6.22612 4.57479 7.02362C4.87919 7.82207 4.33488 8.1184 4.22109 8.16013C2.64505 8.73004 0.795914 9.76888 0.795914 10.7944V11.179C0.795914 12.5762 3.50514 12.8939 6.01238 12.8939C8.52341 12.8939 11.1985 12.5762 11.1985 11.179V10.7944C11.1985 9.73806 9.34035 8.70728 7.68656 8.15965Z" fill="#670029"/>
</svg>
