<svg width="21" height="15" viewBox="0 0 21 15" fill="none" xmlns="http://www.w3.org/2000/svg">
<path d="M20.1596 2.16401L7.85559 14.4681C7.74843 14.5756 7.62109 14.6609 7.48088 14.7191C7.34067 14.7774 7.19034 14.8073 7.03853 14.8073C6.88671 14.8073 6.73638 14.7774 6.59617 14.7191C6.45596 14.6609 6.32862 14.5756 6.22146 14.4681L0.83844 9.08503C0.731141 8.97774 0.646027 8.85035 0.587958 8.71016C0.529888 8.56997 0.5 8.41971 0.5 8.26797C0.5 8.11623 0.529888 7.96597 0.587958 7.82578C0.646027 7.68558 0.731141 7.5582 0.83844 7.4509C0.945738 7.3436 1.07312 7.25849 1.21331 7.20042C1.3535 7.14235 1.50376 7.11246 1.65551 7.11246C1.80725 7.11246 1.95751 7.14235 2.0977 7.20042C2.23789 7.25849 2.36527 7.3436 2.47257 7.4509L7.03949 12.0178L18.5274 0.531799C18.7441 0.3151 19.038 0.193359 19.3445 0.193359C19.651 0.193359 19.9449 0.3151 20.1616 0.531799C20.3783 0.748498 20.5 1.04241 20.5 1.34886C20.5 1.65532 20.3783 1.94923 20.1616 2.16593L20.1596 2.16401Z" fill="#F2F7F2"/>
</svg>
