<svg width="39" height="38" viewBox="0 0 39 38" fill="none" xmlns="http://www.w3.org/2000/svg">
<path fill-rule="evenodd" clip-rule="evenodd" d="M32 0.249573C33.5942 0.249484 35.1282 0.858584 36.288 1.95225C37.4479 3.04591 38.1461 4.54146 38.2396 6.13291L38.25 6.49957V35.6662C38.2499 36.0131 38.1632 36.3544 37.9978 36.6592C37.8324 36.9641 37.5934 37.2228 37.3027 37.4119C37.012 37.601 36.6786 37.7146 36.3329 37.7423C35.9872 37.77 35.64 37.7109 35.3229 37.5704L35.0729 37.4412L29.3958 33.9454L23.7167 37.4412C23.4258 37.62 23.0954 37.7245 22.7547 37.7455C22.4139 37.7666 22.0732 37.7036 21.7625 37.5621L21.5333 37.4412L15.8542 33.9454L10.175 37.4412C9.87735 37.6244 9.5384 37.7298 9.18935 37.7477C8.84029 37.7655 8.49236 37.6953 8.17758 37.5434C7.8628 37.3915 7.59129 37.1628 7.38806 36.8785C7.18482 36.5941 7.05639 36.2632 7.01458 35.9162L7 35.6662V23.1662H2.83333C2.32306 23.1662 1.83055 22.9788 1.44923 22.6398C1.0679 22.3007 0.824286 21.8334 0.764583 21.3267L0.75 21.0829V5.45791C0.749796 4.13558 1.25257 2.86268 2.15633 1.8974C3.0601 0.932116 4.29719 0.346734 5.61667 0.25999L5.95833 0.249573H32ZM25.75 18.9996H17.4167C16.8641 18.9996 16.3342 19.2191 15.9435 19.6098C15.5528 20.0005 15.3333 20.5304 15.3333 21.0829C15.3333 21.6354 15.5528 22.1653 15.9435 22.556C16.3342 22.9467 16.8641 23.1662 17.4167 23.1662H25.75C26.3025 23.1662 26.8324 22.9467 27.2231 22.556C27.6138 22.1653 27.8333 21.6354 27.8333 21.0829C27.8333 20.5304 27.6138 20.0005 27.2231 19.6098C26.8324 19.2191 26.3025 18.9996 25.75 18.9996ZM5.95833 4.41624C5.68207 4.41624 5.41711 4.52599 5.22176 4.72134C5.02641 4.91669 4.91667 5.18164 4.91667 5.45791V18.9996H7V5.45791C7 5.18164 6.89025 4.91669 6.6949 4.72134C6.49955 4.52599 6.2346 4.41624 5.95833 4.41624ZM27.8333 10.6662H17.4167C16.8857 10.6668 16.3749 10.8702 15.9888 11.2347C15.6027 11.5992 15.3703 12.0974 15.3392 12.6275C15.3081 13.1576 15.4806 13.6795 15.8214 14.0867C16.1622 14.4939 16.6456 14.7556 17.1729 14.8183L17.4167 14.8329H27.8333C28.3643 14.8323 28.8751 14.629 29.2612 14.2645C29.6473 13.9 29.8797 13.4018 29.9108 12.8717C29.9419 12.3416 29.7694 11.8196 29.4286 11.4124C29.0878 11.0052 28.6044 10.7435 28.0771 10.6808L27.8333 10.6662Z" fill="#F2F7F2"/>
</svg>
