<svg width="22" height="15" viewBox="0 0 22 15" fill="none" xmlns="http://www.w3.org/2000/svg">
<path d="M10.83 4.73684L14 7.23158V7.10526C14 6.47712 13.6839 5.8747 13.1213 5.43054C12.5587 4.98637 11.7956 4.73684 11 4.73684H10.83ZM6.53 5.36842L8.08 6.59211C8.03 6.7579 8 6.92368 8 7.10526C8 7.73341 8.31607 8.33583 8.87868 8.77999C9.44129 9.22416 10.2044 9.47368 11 9.47368C11.22 9.47368 11.44 9.45 11.65 9.41053L13.2 10.6342C12.53 10.8947 11.79 11.0526 11 11.0526C9.67392 11.0526 8.40215 10.6367 7.46447 9.89647C6.52678 9.1562 6 8.15217 6 7.10526C6 6.48158 6.2 5.89737 6.53 5.36842ZM1 1.00263L3.28 2.80263L3.73 3.15789C2.08 4.18421 0.78 5.52632 0 7.10526C1.73 10.5711 6 13.0263 11 13.0263C12.55 13.0263 14.03 12.7895 15.38 12.3632L15.81 12.6947L18.73 15L20 13.9974L2.27 0M11 3.15789C12.3261 3.15789 13.5979 3.57378 14.5355 4.31405C15.4732 5.05433 16 6.05836 16 7.10526C16 7.61053 15.87 8.1 15.64 8.54211L18.57 10.8553C20.07 9.86842 21.27 8.57368 22 7.10526C20.27 3.63947 16 1.18421 11 1.18421C9.6 1.18421 8.26 1.38158 7 1.73684L9.17 3.43421C9.74 3.26053 10.35 3.15789 11 3.15789Z" fill="#670029"/>
</svg>
